<svg xmlns="http://www.w3.org/2000/svg" width="302" height="500" viewBox="0 0 302 500">
<g>
<path d="M 91.50 498.61 C85.05,495.74 84.53,494.29 84.16,477.89 L 83.82 462.99 L 177.66 463.24 L 271.50 463.50 L 271.50 478.23 L 271.50 492.96 L 268.23 496.23 L 264.96 499.50 L 179.73 499.72 C110.51,499.90 93.94,499.69 91.50,498.61 ZM 177.00 445.16 L 83.50 444.83 L 73.30 433.66 C40.16,397.41 13.12,353.56 3.51,320.50 C1.44,313.38 0.87,303.72 2.27,299.52 C6.58,286.59 22.17,280.88 34.47,287.72 C38.55,289.99 42.77,294.47 47.48,301.53 C55.51,313.56 69.53,325.78 77.48,327.69 C88.70,330.37 91.88,330.54 94.56,328.58 C96.46,327.19 96.51,324.51 97.04,210.83 C97.34,146.85 97.81,93.70 98.10,92.72 C98.39,91.74 100.25,89.00 102.23,86.63 C108.97,78.57 122.31,76.75 131.23,82.68 C137.45,86.82 138.69,90.24 140.47,108.00 C141.32,116.53 142.70,130.02 143.54,138.00 C144.38,145.98 145.51,157.00 146.05,162.50 C146.60,168.00 147.22,173.85 147.43,175.50 C147.64,177.15 149.06,190.88 150.58,206.00 C152.10,221.12 153.62,233.83 153.95,234.23 C154.29,234.64 156.58,233.96 159.03,232.73 C162.49,231.01 165.20,230.51 171.00,230.53 C175.12,230.54 179.85,230.86 181.50,231.22 C183.15,231.59 185.81,232.16 187.40,232.49 C189.00,232.82 191.03,233.48 191.90,233.95 C192.78,234.42 193.95,234.90 194.50,235.03 C195.05,235.15 195.95,235.39 196.50,235.56 C197.05,235.72 200.88,236.85 205.00,238.05 C209.12,239.26 214.86,241.08 217.75,242.11 C220.64,243.13 223.00,243.70 223.00,243.36 C223.00,243.03 223.56,243.22 224.25,243.79 C224.94,244.36 225.73,244.84 226.00,244.85 C226.75,244.88 228.72,245.49 237.63,248.45 C242.11,249.93 246.61,251.30 247.63,251.49 C248.66,251.69 249.61,251.94 249.75,252.05 C249.89,252.16 250.34,252.35 250.75,252.46 C251.16,252.58 252.18,252.93 253.00,253.24 C254.38,253.76 282.24,262.79 284.50,263.45 C286.83,264.13 287.60,264.53 289.46,265.97 C294.44,269.86 298.18,274.85 299.55,279.46 C300.78,283.61 301.02,292.82 300.98,332.84 C300.93,382.83 300.51,389.05 296.49,399.25 C295.68,401.31 295.20,403.00 295.42,403.00 C296.17,403.00 289.84,415.46 287.54,418.50 C286.30,420.15 284.06,423.75 282.57,426.50 C281.08,429.25 279.01,432.85 277.97,434.50 C276.94,436.15 275.35,438.94 274.45,440.70 C273.55,442.47 272.29,444.27 271.66,444.70 C271.02,445.14 228.43,445.35 177.00,445.16 ZM 75.20 177.89 C72.83,176.87 70.21,175.35 69.38,174.52 C68.54,173.68 67.21,173.00 66.43,173.00 C65.64,173.00 65.00,172.55 65.00,172.00 C65.00,171.45 64.55,171.00 64.00,171.00 C63.45,171.00 62.14,170.21 61.09,169.25 C60.03,168.29 56.64,165.30 53.55,162.61 C50.46,159.92 45.24,154.14 41.95,149.77 C24.98,127.26 19.41,99.42 26.16,71.00 C28.43,61.43 35.70,45.63 41.00,38.70 C64.59,7.87 100.68,-5.57 138.00,2.56 C139.38,2.86 141.50,3.31 142.72,3.57 C143.95,3.82 146.20,4.54 147.72,5.17 C149.25,5.79 150.96,6.41 151.52,6.53 C152.08,6.65 157.19,9.35 162.88,12.53 C185.22,25.01 201.27,45.83 207.51,70.44 C210.08,80.57 211.15,95.71 209.90,104.25 C209.47,107.14 208.83,111.53 208.46,114.00 C208.10,116.47 206.39,121.88 204.67,126.00 C202.96,130.12 201.65,133.84 201.78,134.25 C201.90,134.66 201.55,135.00 201.00,135.00 C200.45,135.00 200.00,135.62 200.00,136.39 C200.00,137.15 198.43,140.07 196.50,142.86 C194.57,145.66 193.00,148.34 193.00,148.82 C193.00,151.66 165.99,175.41 164.54,173.85 C164.36,173.66 163.93,170.80 163.58,167.50 C163.22,164.20 162.75,159.93 162.52,158.00 C162.30,156.07 161.86,152.02 161.56,149.00 C157.56,109.07 155.78,92.96 154.95,89.27 C153.66,83.50 150.93,78.37 146.81,73.94 C143.42,70.29 137.00,65.39 137.00,66.45 C137.00,66.78 135.99,66.39 134.75,65.60 C133.51,64.80 129.72,63.65 126.32,63.04 C108.04,59.78 87.22,70.96 82.83,86.40 C82.19,88.66 81.44,91.18 81.16,92.00 C80.89,92.82 80.55,112.78 80.41,136.34 C80.27,159.90 80.00,179.31 79.82,179.46 C79.65,179.62 77.56,178.91 75.20,177.89 Z" fill="#15012b"/>
</g>
</svg>