<svg id="svg" xmlns="http://www.w3.org/2000/svg" xmlns:xlink="http://www.w3.org/1999/xlink" width="400" height="977.1428571428572" viewBox="0, 0, 400,977.1428571428572"><g id="svgg"><path id="path0" d="M6.748 15.714 C 3.779 23.449,7.846 27.630,21.883 31.272 C 207.902 79.545,326.268 200.041,363.043 378.571 C 395.847 537.822,340.131 699.275,216.103 804.374 C 171.668 842.028,61.402 902.355,52.778 893.730 C 52.092 893.044,67.570 875.853,87.174 855.527 C 123.159 818.217,128.943 808.219,115.646 806.315 C 111.427 805.710,96.405 819.022,60.063 855.569 C 5.078 910.865,3.279 913.089,8.975 918.741 C 16.615 926.322,145.802 969.915,150.969 966.656 C 158.263 962.056,156.675 953.395,147.755 949.120 C 133.832 942.446,61.659 917.264,55.714 917.005 L 50.000 916.756 55.714 914.327 C 58.857 912.990,74.286 907.106,90.000 901.250 C 424.118 776.741,496.455 333.895,220.000 105.401 C 156.298 52.750,15.292 -6.552,6.748 15.714 " stroke="none" fill="#000000" fill-rule="evenodd"></path></g></svg>