<svg id="svg" xmlns="http://www.w3.org/2000/svg" xmlns:xlink="http://www.w3.org/1999/xlink" width="400" height="733.3333333333334" viewBox="0, 0, 400,733.3333333333334"><g id="svgg"><path id="path0" d="M8.696 8.696 C 1.882 15.509,5.532 24.418,16.955 28.856 C 47.142 40.584,105.711 75.837,136.232 100.649 C 282.325 219.414,351.081 394.033,326.720 584.425 C 323.360 610.686,325.534 609.995,302.377 592.159 C 277.682 573.139,278.335 573.251,281.164 588.526 C 283.497 601.124,295.231 673.877,299.259 700.725 C 304.272 734.133,303.635 733.150,312.363 720.932 C 321.924 707.548,336.331 688.181,367.088 647.361 C 404.080 598.266,403.609 602.910,371.014 608.684 C 342.498 613.735,343.077 613.693,344.037 610.659 C 346.046 604.305,350.736 568.630,352.107 549.275 C 367.585 330.655,255.848 129.057,62.319 26.434 C 26.337 7.354,14.089 3.303,8.696 8.696 " stroke="none" fill="#000000" fill-rule="evenodd"></path></g></svg>