<svg id="svg" xmlns="http://www.w3.org/2000/svg" xmlns:xlink="http://www.w3.org/1999/xlink" width="400" height="394.11764705882354" viewBox="0, 0, 400,394.11764705882354"><g id="svgg"><path id="path0" d="M220.647 22.799 C 192.154 37.114,185.213 126.104,211.413 141.180 C 224.460 148.687,224.327 148.321,220.394 165.896 C 214.847 190.682,217.817 190.969,253.653 169.107 L 284.973 150.000 319.692 149.989 C 376.995 149.971,386.013 140.510,384.674 81.821 C 383.721 40.034,380.817 32.620,361.556 22.799 C 346.542 15.143,235.884 15.143,220.647 22.799 M354.612 33.718 C 370.212 40.236,374.407 53.138,373.029 90.360 C 371.398 134.425,369.040 136.428,317.247 137.741 L 278.729 138.716 259.218 150.590 C 248.486 157.121,238.611 163.110,237.273 163.899 C 235.934 164.688,235.745 159.297,236.851 151.919 C 238.741 139.314,238.417 138.393,231.475 136.651 C 211.780 131.707,199.233 72.611,212.454 47.059 C 221.449 29.675,322.287 20.211,354.612 33.718 M232.353 55.882 C 232.353 63.486,301.004 65.173,303.894 57.640 C 306.557 50.702,303.181 50.000,267.157 50.000 C 234.314 50.000,232.353 50.331,232.353 55.882 M232.913 84.559 C 233.816 89.251,238.970 89.706,291.176 89.706 C 343.383 89.706,348.537 89.251,349.440 84.559 C 350.358 79.794,346.026 79.412,291.176 79.412 C 236.326 79.412,231.995 79.794,232.913 84.559 M93.557 113.182 C 36.410 143.593,48.405 230.255,111.638 243.816 C 187.434 260.071,229.302 157.006,163.444 116.289 C 143.208 103.778,113.694 102.466,93.557 113.182 M233.471 110.153 C 229.860 119.561,235.565 120.588,291.442 120.588 C 347.945 120.588,361.186 117.711,346.752 108.572 C 339.195 103.787,235.357 105.236,233.471 110.153 M153.214 124.493 C 171.261 134.024,183.120 153.630,183.303 174.237 C 183.908 242.459,87.230 254.222,70.574 187.953 C 58.777 141.015,110.008 101.675,153.214 124.493 M77.941 255.552 C 38.050 265.980,11.889 298.688,9.428 341.214 C 7.296 378.045,2.045 376.471,127.001 376.471 L 229.679 376.471 237.302 368.847 C 259.712 346.438,233.425 283.756,192.647 262.366 C 177.109 254.216,100.469 249.663,77.941 255.552 M185.978 273.149 C 212.232 285.858,227.419 308.495,231.015 340.278 C 233.886 365.655,237.974 364.706,125.756 364.706 C 14.487 364.706,18.626 365.691,21.653 339.930 C 25.970 303.203,46.436 277.827,79.232 268.538 C 102.059 262.073,169.078 264.967,185.978 273.149 " stroke="none" fill="#000000" fill-rule="evenodd"></path></g></svg>