<svg xmlns="http://www.w3.org/2000/svg" width="296" height="500" viewBox="0 0 296 500">
<g>
<path d="M 88.00 498.89 C82.57,496.81 81.55,493.76 81.15,478.25 L 80.78 464.00 L 173.39 464.00 L 266.00 464.00 L 266.00 476.35 C266.00,492.39 264.58,496.69 258.51,499.00 C255.02,500.32 91.49,500.22 88.00,498.89 ZM 78.70 443.87 C77.72,442.79 73.93,438.67 70.30,434.71 C66.66,430.74 61.19,424.35 58.13,420.50 C55.07,416.65 51.96,412.88 51.22,412.11 C46.66,407.44 30.56,383.22 21.55,367.50 C5.15,338.87 -3.18,312.14 1.08,301.79 C4.28,294.01 12.70,288.06 20.57,288.02 C30.36,287.97 37.20,292.61 45.60,305.00 C48.02,308.58 52.14,313.78 54.75,316.56 C59.85,321.99 69.18,329.00 71.30,329.00 C72.02,329.00 73.06,329.46 73.62,330.02 C74.18,330.58 77.75,331.42 81.57,331.89 C86.88,332.54 89.14,332.42 91.25,331.35 L 94.00 329.95 L 94.01 216.72 C94.01,140.10 94.35,102.27 95.07,99.69 C97.88,89.58 113.15,82.47 123.00,86.69 C123.82,87.04 124.88,87.37 125.33,87.41 C126.70,87.56 132.09,93.30 133.63,96.26 C134.42,97.78 135.69,105.21 136.47,112.76 C141.89,165.91 146.04,206.03 146.41,209.00 C146.65,210.93 147.39,218.12 148.05,225.00 C148.71,231.88 149.56,237.84 149.94,238.27 C150.32,238.69 151.99,238.35 153.66,237.52 C162.13,233.29 171.59,233.60 188.00,238.63 C194.32,240.57 200.18,242.32 201.00,242.50 C201.82,242.69 202.61,242.94 202.75,243.05 C202.89,243.16 203.34,243.33 203.75,243.44 C204.16,243.54 207.88,244.70 212.00,246.00 C216.12,247.30 219.73,248.42 220.00,248.48 C221.58,248.83 241.83,255.32 243.50,256.01 C244.60,256.46 250.23,258.27 256.00,260.02 C261.77,261.77 267.92,263.83 269.65,264.60 C271.38,265.37 273.28,266.00 273.87,266.00 C276.44,266.00 285.71,270.97 287.87,273.51 C289.18,275.04 291.15,278.34 292.26,280.84 C294.15,285.13 294.29,287.93 294.64,329.56 C294.96,367.51 294.40,385.63 292.69,393.00 C290.30,403.23 282.26,420.22 275.41,429.50 C274.19,431.15 272.49,434.08 271.62,436.00 C269.89,439.84 268.14,442.72 266.32,444.71 C265.37,445.75 247.10,445.98 172.82,445.92 C82.41,445.84 80.46,445.79 78.70,443.87 ZM 12.33 124.80 C6.62,123.26 1.62,115.85 2.60,110.38 C3.44,105.74 6.31,101.63 10.03,99.75 C13.03,98.24 16.58,98.00 36.20,98.00 C51.96,98.00 59.76,98.38 61.70,99.23 C70.47,103.07 72.74,114.71 66.04,121.42 L 62.97 124.50 L 38.94 125.00 C25.73,125.28 13.75,125.19 12.33,124.80 ZM 167.22 124.35 C162.59,122.75 160.18,120.32 158.86,115.93 C157.21,110.41 158.47,105.67 162.55,102.09 C164.47,100.41 167.05,98.77 168.30,98.46 C169.54,98.15 181.12,98.03 194.03,98.20 L 217.50 98.50 L 220.72 101.39 C224.65,104.91 226.34,109.66 225.42,114.56 C224.68,118.49 220.09,123.69 216.58,124.57 C212.09,125.68 170.56,125.50 167.22,124.35 ZM 106.89 65.57 C100.64,61.37 99.92,57.97 100.05,33.15 C100.15,15.16 100.45,10.92 101.84,8.09 C104.08,3.50 107.87,0.88 113.14,0.30 C116.85,-0.11 118.13,0.28 121.70,2.88 C127.74,7.28 128.19,9.68 127.82,35.50 C127.48,59.15 127.02,61.47 122.00,65.15 C120.62,66.16 117.47,67.22 115.00,67.49 C111.36,67.90 109.81,67.53 106.89,65.57 Z" fill="#15012b"/>
</g>
</svg>