<svg xmlns="http://www.w3.org/2000/svg" width="500" height="500" viewBox="0 0 500 500">
<g>
<path d="M 236.00 499.76 C235.73,499.49 231.45,498.99 226.50,498.66 C195.82,496.59 158.47,485.07 129.50,468.75 C66.30,433.13 21.97,373.75 7.01,304.69 C2.37,283.28 1.50,274.41 1.60,249.50 C1.70,224.78 3.17,212.31 8.63,190.08 C27.08,114.90 83.31,50.14 155.82,20.54 C257.61,-21.00 374.32,9.16 443.85,95.00 C472.90,130.87 490.22,171.61 497.19,220.50 C499.13,234.11 498.82,270.85 496.65,285.00 C487.42,345.15 461.68,393.86 417.35,435.03 C381.37,468.44 336.55,489.59 285.00,497.47 C274.95,499.01 237.04,500.78 236.00,499.76 ZM 269.00 467.94 C328.47,462.51 383.20,433.14 420.08,386.84 C442.44,358.77 456.47,328.32 464.01,291.51 C476.44,230.79 458.42,160.90 417.81,112.27 C398.70,89.39 371.49,67.48 349.00,56.86 C331.15,48.43 324.40,45.74 312.00,42.16 C266.99,29.14 222.59,30.25 177.92,45.51 C164.88,49.97 141.89,61.24 130.31,68.87 C110.63,81.82 89.93,101.21 76.59,119.17 C74.00,122.65 71.28,126.25 70.53,127.16 C67.66,130.67 57.64,148.50 52.50,159.26 C24.61,217.56 25.65,289.33 55.22,348.42 C69.19,376.32 85.85,397.11 112.58,420.00 C129.40,434.40 156.61,449.56 178.97,456.99 C209.62,467.17 238.69,470.71 269.00,467.94 ZM 231.00 452.32 C223.87,451.79 209.33,449.14 199.00,446.49 C171.07,439.30 142.80,424.76 120.78,406.23 C114.69,401.11 113.25,399.40 113.96,398.12 C114.45,397.23 118.49,393.00 122.93,388.72 C129.94,381.96 131.00,380.48 131.00,377.51 C131.00,373.21 127.80,370.00 123.52,370.00 C120.97,370.00 118.72,371.62 110.96,379.07 L 101.50 388.13 L 97.69 383.82 C70.24,352.71 51.93,309.11 48.54,266.75 L 47.92 259.00 L 59.91 259.00 C73.32,259.00 76.28,258.14 78.11,253.73 C79.14,251.25 79.10,250.27 77.90,248.13 C75.51,243.87 72.52,243.03 59.68,243.01 L 47.86 243.00 L 48.52 234.75 C50.12,214.90 54.55,196.16 62.81,174.33 C68.66,158.88 84.49,133.12 96.26,119.92 L 101.77 113.73 L 111.08 122.86 C121.43,133.03 124.06,134.03 128.55,129.55 C132.86,125.23 131.93,122.18 123.92,114.39 C120.02,110.60 115.98,106.31 114.93,104.87 L 113.03 102.23 L 121.34 95.37 C143.90,76.73 167.66,64.33 196.50,56.12 C205.22,53.64 223.99,50.36 234.25,49.54 L 242.00 48.92 L 242.00 60.91 C242.00,67.80 242.49,73.98 243.15,75.42 C244.58,78.57 250.02,80.60 252.90,79.05 C257.29,76.70 258.00,74.22 258.00,61.21 L 258.00 48.86 L 266.25 49.52 C270.79,49.89 279.31,51.02 285.19,52.05 C304.70,55.45 317.92,59.71 337.00,68.75 C352.47,76.07 369.96,87.57 383.41,99.25 L 387.32 102.65 L 379.56 110.07 C368.59,120.56 366.58,125.38 371.31,129.83 C376.09,134.31 379.72,132.44 393.32,118.50 L 398.19 113.50 L 401.66 117.50 C408.41,125.30 419.63,140.60 423.67,147.50 C439.28,174.23 449.04,205.06 451.46,235.25 L 452.08 243.00 L 439.46 243.00 C426.85,243.00 426.84,243.00 423.92,245.92 C420.23,249.62 420.23,252.38 423.92,256.08 C426.85,259.00 426.85,259.00 439.51,259.00 L 452.17 259.00 L 451.54 266.75 C450.17,283.44 445.27,305.96 439.94,320.00 C438.79,323.02 437.49,326.66 437.05,328.07 C436.22,330.72 427.90,347.01 423.29,355.00 C419.42,361.72 412.35,371.55 405.11,380.26 C397.72,389.15 399.20,389.27 388.87,378.92 C385.77,375.82 382.18,372.54 380.89,371.64 C377.37,369.17 373.48,369.57 371.07,372.63 C367.06,377.73 368.26,380.50 379.24,391.48 L 387.21 399.46 L 383.86 402.33 C364.12,419.18 347.18,429.61 325.29,438.39 C307.34,445.59 284.69,450.94 265.75,452.46 L 258.00 453.08 L 258.00 441.09 C258.00,428.15 257.14,424.84 253.34,423.11 C249.62,421.42 248.10,421.74 244.92,424.92 C242.00,427.84 242.00,427.86 242.00,440.42 L 242.00 453.00 L 238.75 452.83 C236.96,452.73 233.48,452.50 231.00,452.32 ZM 347.79 360.10 C356.38,355.71 360.96,348.37 360.95,339.00 C360.95,335.93 360.19,331.83 359.22,329.72 C358.13,327.33 344.93,313.37 323.24,291.69 L 288.97 257.44 L 288.65 249.41 C288.24,239.37 285.17,232.17 278.05,224.65 L 273.00 219.31 L 273.00 162.72 C273.00,125.44 272.64,105.17 271.94,103.32 C268.42,93.91 259.95,88.00 250.00,88.00 C240.02,88.00 231.59,93.91 228.03,103.39 C227.29,105.36 226.95,124.46 226.98,162.74 L 227.03 219.19 L 222.16 224.51 C207.30,240.77 207.59,263.47 222.84,278.28 C230.73,285.94 242.35,290.50 252.28,289.83 C256.01,289.57 256.55,290.06 290.78,324.25 C312.24,345.68 326.84,359.50 329.00,360.42 C334.02,362.57 343.26,362.42 347.79,360.10 ZM 335.00 346.02 C334.17,345.50 319.68,331.24 302.79,314.34 L 272.08 283.60 L 276.79 278.41 C279.38,275.55 281.81,273.17 282.20,273.11 C283.34,272.93 344.43,334.93 345.22,337.06 C347.25,342.55 339.82,349.07 335.00,346.02 ZM 241.42 272.58 C226.68,266.16 222.37,248.11 232.69,236.05 C241.14,226.18 254.99,225.16 264.95,233.69 C272.11,239.81 274.64,248.57 272.00,258.07 C270.65,262.91 264.49,269.87 259.56,272.11 C254.77,274.29 245.87,274.52 241.42,272.58 ZM 253.40 257.86 C259.08,255.27 258.25,244.85 252.27,243.71 C245.57,242.43 240.99,247.40 243.06,253.70 C244.62,258.41 248.64,260.03 253.40,257.86 ZM 242.00 161.90 C242.00,129.15 242.37,110.24 243.05,108.29 C245.41,101.51 255.02,101.87 257.03,108.82 C257.73,111.27 257.99,129.26 257.79,162.43 L 257.50 212.37 L 249.75 212.43 L 242.00 212.50 L 242.00 161.90 Z" fill="#15012b"/>
</g>
</svg>