<svg id="svg" version="1.1" xmlns="http://www.w3.org/2000/svg" xmlns:xlink="http://www.w3.org/1999/xlink" width="400" height="495.86776859504135" viewBox="0, 0, 400,495.86776859504135"><g id="svgg"><path id="path0" d="M47.107 29.182 C 45.289 29.566,42.142 30.234,40.113 30.667 C 34.766 31.806,25.085 40.854,21.823 47.760 C 19.229 53.251,18.977 68.903,18.613 247.107 L 18.218 440.496 21.919 447.860 C 32.500 468.913,24.727 468.092,207.438 467.455 L 354.545 466.942 362.848 461.429 C 378.930 450.750,377.686 468.719,377.686 247.107 L 377.686 53.719 373.963 46.281 C 369.779 37.924,361.915 31.807,352.564 29.637 C 346.459 28.219,53.720 27.783,47.107 29.182 M221.927 92.442 C 231.356 96.546,256.198 128.647,256.198 136.727 C 256.198 137.184,259.843 143.611,264.297 151.010 C 268.751 158.409,281.506 180.455,292.642 200.000 C 303.777 219.545,314.411 238.140,316.271 241.322 C 326.017 257.989,317.316 280.136,297.491 289.129 C 285.978 294.351,110.771 294.362,99.174 289.141 C 79.967 280.494,71.033 259.170,79.749 242.781 C 81.439 239.605,131.868 151.233,137.175 142.149 C 163.704 96.739,161.314 100.150,170.593 94.474 C 181.567 87.761,208.704 86.687,221.927 92.442 M180.852 106.482 C 178.047 107.703,174.150 110.835,172.192 113.442 C 170.233 116.049,167.879 119.080,166.960 120.178 C 166.041 121.276,165.289 122.634,165.289 123.195 C 165.289 123.756,162.391 129.180,158.848 135.248 C 113.801 212.403,92.562 251.746,92.562 258.037 C 92.562 266.246,98.721 273.182,108.395 275.868 C 117.333 278.350,279.361 278.350,288.299 275.868 C 304.770 271.295,308.111 259.598,298.120 241.481 C 287.310 221.878,262.411 178.065,251.755 159.897 C 246.017 150.113,241.322 141.758,241.322 141.331 C 241.322 140.904,238.347 135.693,234.711 129.752 C 231.074 123.811,228.099 118.358,228.099 117.636 C 228.099 107.482,195.974 99.898,180.852 106.482 M219.835 147.107 C 221.921 151.006,220.649 153.861,211.300 166.266 C 203.683 176.374,203.521 177.438,209.810 176.057 C 213.469 175.253,215.499 175.830,218.074 178.405 C 222.970 183.301,224.843 178.995,201.690 216.077 C 187.544 238.733,181.440 243.269,176.790 234.582 C 174.475 230.254,174.969 229.035,186.249 211.242 C 196.125 195.663,196.480 193.948,189.267 196.690 C 171.352 203.502,172.011 191.346,190.837 167.769 C 197.370 159.587,204.049 150.847,205.680 148.347 C 209.341 142.734,217.129 142.052,219.835 147.107 M294.117 335.515 C 299.626 336.927,300.924 346.054,295.992 348.694 C 289.245 352.305,102.903 350.837,99.210 347.144 C 95.407 343.341,96.546 337.482,101.469 335.530 C 105.451 333.950,287.956 333.936,294.117 335.515 M295.976 393.447 C 299.550 395.359,300.227 401.592,297.190 404.628 C 294.956 406.862,103.113 407.561,99.879 405.347 C 96.650 403.135,96.083 398.775,98.566 395.231 C 101.350 391.255,288.717 389.562,295.976 393.447 " stroke="none" fill="hsl(43, 97%, 50%)" fill-rule="evenodd"></path></g></svg>