<svg xmlns="http://www.w3.org/2000/svg" version="1.1" xmlns:xlink="http://www.w3.org/1999/xlink" xmlns:svgjs="http://svgjs.dev/svgjs" viewBox="0 0 800 800"><defs><linearGradient x1="50%" y1="0%" x2="50%" y2="100%" id="ffflurry-grad" gradientTransform="rotate(270)"><stop stop-color="hsl(43, 97%, 50%)" stop-opacity="1" offset="0%"></stop><stop stop-color="#5102a4" stop-opacity="1" offset="45%"></stop><stop stop-color="#077878" stop-opacity="1" offset="100%"></stop></linearGradient></defs><rect width="100%" height="100%" fill="hsl(43, 97%, 50%)"></rect><g fill="url(#ffflurry-grad)"><rect width="337" height="6" x="378.5" y="143" rx="3" transform="rotate(137, 547, 146)" opacity="0.38"></rect><rect width="137" height="6" x="51.5" y="706" rx="3" transform="rotate(137, 120, 709)" opacity="0.70"></rect><rect width="408" height="6" x="74" y="733" rx="3" transform="rotate(137, 278, 736)" opacity="0.85"></rect><rect width="531" height="6" x="438.5" y="122" rx="3" transform="rotate(137, 704, 125)" opacity="0.83"></rect><rect width="117" height="6" x="311.5" y="717" rx="3" transform="rotate(137, 370, 720)" opacity="0.42"></rect><rect width="116" height="6" x="-11" y="400" rx="3" transform="rotate(137, 47, 403)" opacity="0.41"></rect><rect width="121" height="6" x="-9.5" y="643" rx="3" transform="rotate(137, 51, 646)" opacity="0.80"></rect><rect width="112" height="6" x="601" y="768" rx="3" transform="rotate(137, 657, 771)" opacity="0.97"></rect><rect width="189" height="6" x="426.5" y="36" rx="3" transform="rotate(137, 521, 39)" opacity="0.66"></rect><rect width="498" height="6" x="56" y="601" rx="3" transform="rotate(137, 305, 604)" opacity="0.90"></rect><rect width="390" height="6" x="-125" y="47" rx="3" transform="rotate(137, 70, 50)" opacity="0.92"></rect><rect width="411" height="6" x="149.5" y="288" rx="3" transform="rotate(137, 355, 291)" opacity="0.63"></rect><rect width="580" height="6" x="457" y="45" rx="3" transform="rotate(137, 747, 48)" opacity="0.09"></rect><rect width="592" height="6" x="-232" y="147" rx="3" transform="rotate(137, 64, 150)" opacity="0.46"></rect><rect width="283" height="6" x="623.5" y="172" rx="3" transform="rotate(137, 765, 175)" opacity="0.83"></rect><rect width="108" height="6" x="604" y="374" rx="3" transform="rotate(137, 658, 377)" opacity="0.22"></rect><rect width="83" height="6" x="522.5" y="725" rx="3" transform="rotate(137, 564, 728)" opacity="0.74"></rect><rect width="417" height="6" x="418.5" y="56" rx="3" transform="rotate(137, 627, 59)" opacity="0.28"></rect><rect width="486" height="6" x="296" y="263" rx="3" transform="rotate(137, 539, 266)" opacity="0.77"></rect><rect width="191" height="6" x="531.5" y="607" rx="3" transform="rotate(137, 627, 610)" opacity="0.19"></rect><rect width="57" height="6" x="738.5" y="267" rx="3" transform="rotate(137, 767, 270)" opacity="0.51"></rect><rect width="538" height="6" x="188" y="340" rx="3" transform="rotate(137, 457, 343)" opacity="0.78"></rect><rect width="190" height="6" x="358" y="756" rx="3" transform="rotate(137, 453, 759)" opacity="0.81"></rect><rect width="465" height="6" x="-132.5" y="274" rx="3" transform="rotate(137, 100, 277)" opacity="0.97"></rect><rect width="43" height="6" x="441.5" y="244" rx="3" transform="rotate(137, 463, 247)" opacity="0.74"></rect><rect width="148" height="6" x="112" y="643" rx="3" transform="rotate(137, 186, 646)" opacity="0.50"></rect><rect width="669" height="6" x="-136.5" y="542" rx="3" transform="rotate(137, 198, 545)" opacity="0.53"></rect><rect width="129" height="6" x="130.5" y="293" rx="3" transform="rotate(137, 195, 296)" opacity="0.56"></rect><rect width="453" height="6" x="250.5" y="107" rx="3" transform="rotate(137, 477, 110)" opacity="0.53"></rect><rect width="172" height="6" x="678" y="615" rx="3" transform="rotate(137, 764, 618)" opacity="0.69"></rect><rect width="61" height="6" x="160.5" y="165" rx="3" transform="rotate(137, 191, 168)" opacity="0.27"></rect><rect width="212" height="6" x="192" y="354" rx="3" transform="rotate(137, 298, 357)" opacity="0.65"></rect><rect width="468" height="6" x="-188" y="752" rx="3" transform="rotate(137, 46, 755)" opacity="0.94"></rect><rect width="126" height="6" x="256" y="52" rx="3" transform="rotate(137, 319, 55)" opacity="0.29"></rect><rect width="59" height="6" x="733.5" y="740" rx="3" transform="rotate(137, 763, 743)" opacity="0.91"></rect><rect width="135" height="6" x="547.5" y="296" rx="3" transform="rotate(137, 615, 299)" opacity="0.93"></rect><rect width="248" height="6" x="303" y="541" rx="3" transform="rotate(137, 427, 544)" opacity="0.77"></rect><rect width="240" height="6" x="569" y="643" rx="3" transform="rotate(137, 689, 646)" opacity="0.44"></rect><rect width="484" height="6" x="169" y="58" rx="3" transform="rotate(137, 411, 61)" opacity="0.67"></rect><rect width="389" height="6" x="503.5" y="280" rx="3" transform="rotate(137, 698, 283)" opacity="0.35"></rect><rect width="645" height="6" x="-261.5" y="540" rx="3" transform="rotate(137, 61, 543)" opacity="0.27"></rect><rect width="742" height="6" x="-42" y="468" rx="3" transform="rotate(137, 329, 471)" opacity="0.31"></rect><rect width="156" height="6" x="504" y="217" rx="3" transform="rotate(137, 582, 220)" opacity="0.10"></rect><rect width="46" height="6" x="711" y="447" rx="3" transform="rotate(137, 734, 450)" opacity="0.53"></rect><rect width="204" height="6" x="303" y="626" rx="3" transform="rotate(137, 405, 629)" opacity="0.16"></rect><rect width="131" height="6" x="367.5" y="178" rx="3" transform="rotate(137, 433, 181)" opacity="0.38"></rect><rect width="166" height="6" x="636" y="527" rx="3" transform="rotate(137, 719, 530)" opacity="0.99"></rect><rect width="427" height="6" x="7.5" y="415" rx="3" transform="rotate(137, 221, 418)" opacity="0.24"></rect><rect width="32" height="6" x="668" y="707" rx="3" transform="rotate(137, 684, 710)" opacity="0.75"></rect><rect width="435" height="6" x="459.5" y="200" rx="3" transform="rotate(137, 677, 203)" opacity="0.92"></rect><rect width="291" height="6" x="33.5" y="761" rx="3" transform="rotate(137, 179, 764)" opacity="0.51"></rect><rect width="198" height="6" x="460" y="549" rx="3" transform="rotate(137, 559, 552)" opacity="0.22"></rect><rect width="511" height="6" x="-120.5" y="443" rx="3" transform="rotate(137, 135, 446)" opacity="0.49"></rect><rect width="264" height="6" x="-104" y="253" rx="3" transform="rotate(137, 28, 256)" opacity="0.25"></rect><rect width="76" height="6" x="283" y="175" rx="3" transform="rotate(137, 321, 178)" opacity="0.65"></rect><rect width="540" height="6" x="190" y="448" rx="3" transform="rotate(137, 460, 451)" opacity="0.54"></rect><rect width="522" height="6" x="-55" y="54" rx="3" transform="rotate(137, 206, 57)" opacity="0.57"></rect><rect width="529" height="6" x="285.5" y="374" rx="3" transform="rotate(137, 550, 377)" opacity="0.80"></rect><rect width="593" height="6" x="302.5" y="461" rx="3" transform="rotate(137, 599, 464)" opacity="0.72"></rect><rect width="39" height="6" x="601.5" y="176" rx="3" transform="rotate(137, 621, 179)" opacity="0.77"></rect><rect width="188" height="6" x="663" y="362" rx="3" transform="rotate(137, 757, 365)" opacity="0.85"></rect><rect width="260" height="6" x="368" y="642" rx="3" transform="rotate(137, 498, 645)" opacity="0.39"></rect></g></svg>