<svg id="svg" version="1.1" xmlns="http://www.w3.org/2000/svg" xmlns:xlink="http://www.w3.org/1999/xlink" width="400" height="372.7272727272727" viewBox="0, 0, 400,372.7272727272727"><g id="svgg"><path id="path0" d="M53.030 65.530 C 50.208 68.353,52.444 70.455,58.270 70.455 C 68.642 70.455,72.727 75.742,72.727 89.168 C 72.727 95.833,72.959 96.591,75.000 96.591 C 78.150 96.591,78.356 80.017,75.282 73.864 C 72.123 67.540,56.771 61.790,53.030 65.530 M159.280 72.727 L 116.856 73.295 113.542 77.007 C 109.003 82.088,108.475 96.133,112.784 97.152 C 114.190 97.485,157.784 97.623,209.659 97.458 L 303.977 97.159 303.977 88.442 C 303.977 77.668,301.607 74.295,293.282 73.220 C 286.207 72.307,211.253 72.031,159.280 72.727 M115.057 103.135 L 52.273 103.428 52.273 115.350 L 52.273 127.273 84.103 127.273 L 115.933 127.273 115.637 177.557 L 115.341 227.841 103.977 227.979 C 97.727 228.055,83.537 228.183,72.443 228.263 L 52.273 228.409 52.273 240.314 L 52.273 252.219 95.170 252.530 C 118.764 252.701,163.886 252.585,195.441 252.273 L 252.813 251.705 253.608 246.146 C 258.011 215.353,288.970 195.901,322.443 202.895 L 326.136 203.667 326.136 154.071 C 326.136 115.435,325.822 104.356,324.716 103.942 C 322.869 103.249,195.408 102.759,115.057 103.135 M62.500 132.955 L 52.841 133.523 52.543 177.841 L 52.245 222.159 81.236 221.838 L 110.227 221.516 110.227 177.825 L 110.227 134.134 107.670 133.577 C 103.785 132.731,73.421 132.312,62.500 132.955 M222.727 133.851 C 222.727 134.344,218.253 139.074,212.784 144.362 L 202.841 153.977 215.341 154.278 C 229.442 154.616,231.212 154.973,229.892 157.212 C 229.142 158.485,219.960 169.252,215.315 174.304 C 214.676 174.999,208.589 182.088,201.788 190.057 C 194.987 198.026,189.023 204.545,188.535 204.545 C 188.047 204.545,190.172 197.083,193.256 187.962 C 196.340 178.841,198.864 171.170,198.864 170.916 C 198.864 170.662,193.750 170.455,187.500 170.455 C 179.770 170.455,176.136 170.041,176.136 169.163 C 176.136 167.795,188.486 142.905,192.270 136.648 L 194.504 132.955 208.615 132.955 C 216.377 132.955,222.727 133.358,222.727 133.851 M289.700 211.199 C 268.267 220.346,257.289 238.914,260.151 261.178 C 261.257 269.778,261.692 271.920,262.500 272.727 C 262.813 273.040,264.091 275.329,265.341 277.813 C 276.291 299.581,305.783 308.576,328.703 297.137 C 341.103 290.949,353.409 274.419,353.409 263.950 C 353.409 262.601,353.831 261.237,354.347 260.918 C 355.774 260.036,353.613 244.513,351.134 237.840 C 348.970 232.018,348.241 230.892,341.477 222.940 C 329.685 209.075,306.825 203.891,289.700 211.199 M78.922 259.395 C 78.610 260.205,78.496 270.312,78.667 281.855 L 78.977 302.841 89.205 303.130 C 101.760 303.485,100.026 304.769,111.854 286.364 L 121.713 271.023 134.436 270.455 L 147.159 269.886 147.159 264.205 L 147.159 258.523 113.323 258.222 C 86.430 257.982,79.371 258.223,78.922 259.395 " stroke="none" fill="hsl(43, 97%, 50%)" fill-rule="evenodd"></path></g></svg>