<svg id="svg" version="1.1" xmlns="http://www.w3.org/2000/svg" xmlns:xlink="http://www.w3.org/1999/xlink" width="400" height="371.9298245614035" viewBox="0, 0, 400,371.9298245614035"><g id="svgg"><path id="path0" d="M101.170 48.343 C 99.183 50.495,98.767 52.861,98.412 64.035 L 97.993 77.193 84.068 77.193 C 70.567 77.193,67.498 77.835,63.496 81.495 C 62.302 82.587,61.988 95.861,61.988 145.343 L 61.988 207.812 59.009 209.169 C 57.371 209.916,55.033 210.526,53.815 210.526 C 52.597 210.526,51.300 211.012,50.933 211.606 C 50.566 212.200,48.693 213.031,46.770 213.453 C 44.848 213.875,43.275 214.705,43.275 215.298 C 43.275 215.890,42.592 216.374,41.758 216.374 C 36.972 216.374,22.726 231.278,18.492 240.715 C 17.139 243.731,15.451 247.464,14.741 249.011 C 12.889 253.045,13.031 281.337,14.912 283.217 C 15.716 284.021,16.374 285.502,16.374 286.509 C 16.374 291.324,30.909 311.111,34.445 311.111 C 35.304 311.111,36.276 311.812,36.605 312.669 C 38.639 317.971,61.744 324.637,74.382 323.569 C 82.370 322.894,84.261 322.388,93.159 318.549 C 95.186 317.675,97.423 316.959,98.130 316.959 C 98.837 316.959,99.415 316.433,99.415 315.789 C 99.415 315.146,100.179 314.620,101.112 314.620 C 104.392 314.620,118.581 299.138,121.478 292.398 C 122.999 288.860,124.710 285.051,125.280 283.934 C 125.849 282.817,126.316 280.886,126.316 279.644 C 126.316 273.354,123.049 273.684,185.280 273.684 L 242.825 273.684 244.954 278.655 C 248.005 285.779,249.792 289.893,252.547 296.135 C 253.880 299.155,254.971 302.181,254.971 302.860 C 254.971 303.538,255.497 304.094,256.140 304.094 C 256.784 304.094,257.310 304.818,257.310 305.702 C 257.310 308.638,262.901 319.850,265.402 321.930 C 269.556 325.385,295.794 324.929,299.085 321.345 C 301.813 318.373,306.433 308.671,306.433 305.912 C 306.433 304.912,306.959 304.094,307.602 304.094 C 308.246 304.094,308.772 303.538,308.772 302.860 C 308.772 302.181,309.863 299.155,311.196 296.135 C 313.950 289.893,315.738 285.779,318.789 278.655 L 320.918 273.684 332.305 273.684 C 341.098 273.684,344.111 273.265,345.530 271.846 C 347.970 269.407,348.299 84.873,345.869 81.857 C 342.969 78.257,337.960 77.193,323.922 77.193 L 309.942 77.193 309.942 63.418 C 309.942 43.341,323.389 45.596,204.373 45.712 L 103.509 45.809 101.170 48.343 M294.737 70.175 L 294.737 77.193 205.263 77.193 L 115.789 77.193 115.789 70.175 L 115.789 63.158 205.263 63.158 L 294.737 63.158 294.737 70.175 M330.292 98.536 C 331.224 103.197,331.132 250.480,330.194 255.170 L 329.522 258.532 308.989 258.214 L 288.456 257.895 286.299 251.462 C 285.113 247.924,283.675 243.977,283.103 242.690 C 282.532 241.404,280.405 235.351,278.377 229.240 C 274.264 216.845,271.911 211.815,269.211 209.649 C 267.787 208.507,246.735 208.187,172.876 208.187 L 78.363 208.187 78.363 151.462 L 78.363 94.737 203.947 94.737 L 329.532 94.737 330.292 98.536 M100.585 113.174 C 97.478 116.669,98.017 186.419,101.170 188.801 C 105.117 191.784,229.269 191.502,231.982 188.504 C 235.087 185.074,234.901 115.872,231.779 113.047 C 228.472 110.054,103.251 110.175,100.585 113.174 M283.491 114.345 C 282.774 114.818,281.817 116.389,281.365 117.836 C 280.914 119.284,280.053 120.468,279.453 120.468 C 278.853 120.468,278.363 121.050,278.363 121.761 C 278.363 122.473,274.889 128.820,270.643 135.867 C 262.731 148.999,261.061 156.725,266.135 156.725 C 267.071 156.725,267.836 157.251,267.836 157.895 C 267.836 158.538,270.731 159.064,274.269 159.064 C 279.207 159.064,280.702 159.472,280.702 160.819 C 280.702 161.784,280.211 162.573,279.611 162.573 C 279.011 162.573,278.151 163.757,277.699 165.205 C 277.247 166.652,276.553 168.099,276.157 168.421 C 271.009 172.598,269.586 185.260,274.106 186.670 C 275.482 187.099,276.936 187.959,277.337 188.582 C 279.823 192.448,299.415 168.445,299.415 161.533 C 299.415 160.819,299.900 160.234,300.492 160.234 C 301.084 160.234,301.915 158.655,302.339 156.725 C 302.763 154.795,303.594 153.216,304.186 153.216 C 306.041 153.216,305.365 149.627,302.844 146.087 C 300.683 143.051,299.750 142.690,294.072 142.690 C 286.457 142.690,286.374 142.285,292.077 132.902 C 299.940 119.964,294.105 107.353,283.491 114.345 M218.713 151.462 L 218.713 175.439 167.251 175.439 L 115.789 175.439 115.789 151.462 L 115.789 127.485 167.251 127.485 L 218.713 127.485 218.713 151.462 M78.183 226.465 C 100.494 232.890,109.357 244.345,109.357 266.758 C 109.357 306.251,62.135 321.160,36.651 289.714 C 30.121 281.656,28.110 257.864,33.159 248.401 C 38.716 237.984,48.340 230.642,61.404 226.851 C 70.455 224.225,70.406 224.226,78.183 226.465 M259.219 226.647 C 259.935 227.793,260.912 230.557,261.390 232.787 C 261.868 235.017,262.614 237.368,263.048 238.012 C 263.482 238.655,264.830 242.339,266.043 246.199 C 267.257 250.058,268.683 253.716,269.213 254.327 C 272.796 258.462,272.008 258.505,198.538 258.196 L 126.901 257.895 126.505 254.386 C 126.287 252.456,125.702 250.351,125.204 249.708 C 124.706 249.064,123.925 246.959,123.468 245.029 C 123.011 243.099,120.054 237.705,116.897 233.041 L 111.158 224.561 184.538 224.561 C 253.671 224.561,257.992 224.682,259.219 226.647 M60.819 243.148 C 60.819 243.722,59.548 244.510,57.995 244.899 C 46.536 247.776,42.528 271.638,51.746 282.103 C 64.525 296.609,89.661 290.638,93.300 272.231 C 95.585 260.674,88.468 244.444,81.116 244.444 C 80.245 244.444,79.532 243.918,79.532 243.275 C 79.532 242.593,75.634 242.105,70.175 242.105 C 65.029 242.105,60.819 242.575,60.819 243.148 M75.494 261.574 C 79.773 266.191,77.770 271.522,71.154 273.130 C 65.349 274.541,60.881 266.807,64.657 261.886 C 67.835 257.744,71.838 257.629,75.494 261.574 M301.754 276.023 C 301.754 277.310,301.270 278.363,300.678 278.363 C 300.086 278.363,299.254 279.942,298.830 281.871 C 298.407 283.801,297.634 285.380,297.113 285.380 C 296.593 285.380,295.821 287.222,295.399 289.474 C 294.976 291.725,294.170 293.567,293.607 293.567 C 293.044 293.567,292.238 295.140,291.816 297.063 C 291.394 298.985,290.562 300.858,289.968 301.225 C 289.375 301.592,288.889 302.914,288.889 304.163 C 288.889 306.158,288.038 306.433,281.871 306.433 C 275.705 306.433,274.854 306.158,274.854 304.163 C 274.854 302.914,274.368 301.592,273.774 301.225 C 273.180 300.858,272.349 298.985,271.927 297.063 C 271.505 295.140,270.675 293.567,270.083 293.567 C 269.490 293.567,268.988 292.909,268.966 292.105 C 268.944 291.301,267.910 288.538,266.667 285.965 C 265.424 283.392,264.389 280.629,264.367 279.825 C 264.345 279.020,263.801 278.363,263.158 278.363 C 262.515 278.363,261.988 277.310,261.988 276.023 C 261.988 273.776,262.768 273.684,281.871 273.684 C 300.975 273.684,301.754 273.776,301.754 276.023 " stroke="none" fill="hsl(43, 97%, 50%)" fill-rule="evenodd"></path></g></svg>