<svg id="svg" version="1.1" xmlns="http://www.w3.org/2000/svg" xmlns:xlink="http://www.w3.org/1999/xlink" width="400" height="439.82683982683983" viewBox="0, 0, 400,439.82683982683983"><g id="svgg"><path id="path0" d="M27.977 12.944 C 20.109 17.741,21.970 28.692,31.069 31.142 L 34.632 32.101 34.632 67.999 C 34.632 90.880,34.940 103.896,35.481 103.896 C 36.688 103.896,80.099 67.289,82.880 63.927 C 83.609 63.045,84.016 57.806,84.179 47.204 C 84.399 32.875,84.532 31.748,86.037 31.528 C 96.006 30.069,98.773 17.068,90.072 12.569 C 85.733 10.325,31.737 10.651,27.977 12.944 M139.264 30.557 C 133.717 35.417,125.924 42.146,121.948 45.511 C 110.836 54.912,89.000 73.501,67.931 91.495 C 57.436 100.459,44.019 111.883,38.116 116.883 C 32.213 121.883,25.366 127.727,22.901 129.870 C 20.436 132.013,15.242 136.474,11.361 139.783 C 3.515 146.472,1.946 149.516,3.479 155.070 C 5.062 160.800,12.545 164.749,17.937 162.699 C 19.465 162.118,56.599 131.203,61.991 126.023 C 62.515 125.520,67.558 121.212,73.199 116.450 C 78.839 111.688,87.994 103.896,93.542 99.134 C 99.091 94.372,106.671 87.944,110.388 84.848 C 114.104 81.753,119.158 77.468,121.619 75.325 C 126.759 70.849,127.850 69.909,140.493 59.074 C 151.537 49.608,149.531 49.975,156.567 56.128 C 163.814 62.465,191.253 85.994,196.118 90.043 C 200.242 93.476,208.307 100.329,227.706 116.883 C 235.087 123.182,244.242 130.982,248.052 134.217 C 251.861 137.452,260.043 144.468,266.234 149.808 C 284.134 165.250,290.795 167.005,295.676 157.566 C 299.300 150.559,296.089 144.566,283.550 134.930 C 282.121 133.832,277.056 129.603,272.294 125.531 C 263.692 118.175,241.625 99.349,204.329 67.548 C 193.615 58.412,183.855 50.062,182.640 48.992 C 172.682 40.223,150.467 21.653,149.971 21.683 C 149.630 21.703,144.812 25.697,139.264 30.557 M136.797 76.697 C 129.892 82.654,121.710 89.650,118.615 92.244 C 109.865 99.577,104.747 103.934,83.570 122.078 C 72.731 131.364,59.528 142.610,54.229 147.070 C 48.930 151.530,41.956 157.518,38.731 160.377 L 32.868 165.575 33.101 230.190 L 33.333 294.805 35.498 298.061 C 36.787 300.001,39.393 302.189,41.945 303.473 L 46.227 305.628 93.244 305.628 L 140.260 305.628 140.260 318.210 C 140.260 332.643,139.543 335.273,134.577 339.063 L 131.308 341.558 101.300 341.991 L 71.291 342.424 63.838 346.119 C 33.438 361.190,36.185 403.352,68.403 416.197 C 72.069 417.659,78.423 417.749,178.355 417.749 L 284.416 417.749 289.481 415.183 C 298.245 410.742,303.590 404.167,306.049 394.805 C 306.794 391.968,307.087 371.585,307.126 319.839 C 307.178 249.884,307.207 248.714,308.960 245.279 C 317.621 228.301,339.569 228.797,347.975 246.161 C 349.730 249.787,349.784 251.093,349.784 290.232 L 349.784 330.567 347.204 331.466 C 337.338 334.905,330.570 347.201,330.924 361.045 L 331.169 370.640 359.524 370.620 C 375.119 370.609,388.328 370.592,388.876 370.581 C 389.602 370.568,389.719 368.034,389.306 361.291 C 388.454 347.369,384.044 338.995,374.273 332.744 C 371.756 331.134,369.697 329.586,369.697 329.305 C 369.697 329.023,370.258 329.258,370.943 329.827 C 372.011 330.713,372.068 330.421,371.341 327.788 C 370.829 325.934,370.592 309.985,370.744 287.548 C 370.882 267.106,370.757 250.528,370.465 250.709 C 370.173 250.890,369.707 248.830,369.428 246.132 C 365.399 207.093,304.150 200.299,289.558 237.273 L 287.013 243.723 286.580 316.883 C 286.117 395.101,286.310 391.983,281.707 395.604 C 278.255 398.319,79.042 398.460,73.775 395.750 C 67.570 392.559,63.203 385.992,63.203 379.851 C 63.203 376.972,67.098 367.965,68.343 367.965 C 68.704 367.965,69.899 367.185,71.000 366.230 C 74.701 363.020,78.727 362.648,106.640 362.931 C 121.391 363.081,132.554 362.982,131.448 362.711 C 129.943 362.342,130.446 362.100,133.447 361.747 C 151.716 359.597,161.039 344.837,161.039 318.064 L 161.039 305.628 206.710 305.623 C 254.865 305.618,256.871 305.470,261.483 301.589 C 267.857 296.226,267.532 300.123,267.532 228.947 L 267.532 165.184 265.252 163.391 C 263.998 162.404,259.602 158.647,255.483 155.041 C 251.364 151.435,240.628 142.251,231.626 134.632 C 222.623 127.013,213.240 119.026,210.775 116.883 C 208.310 114.740,203.470 110.649,200.020 107.792 C 196.570 104.935,191.331 100.455,188.379 97.835 C 182.399 92.530,162.839 75.850,159.445 73.160 C 158.242 72.208,155.822 70.162,154.066 68.615 C 149.878 64.925,151.110 64.348,136.797 76.697 M138.890 152.906 C 140.673 153.591,140.986 195.464,139.221 197.229 C 137.743 198.707,96.023 198.707,94.545 197.229 C 93.024 195.708,93.065 153.569,94.589 152.954 C 96.150 152.324,137.258 152.280,138.890 152.906 M205.887 153.420 C 207.364 154.896,207.364 195.753,205.887 197.229 C 205.135 197.982,198.918 198.268,183.355 198.268 L 161.862 198.268 161.018 196.048 C 160.110 193.661,159.852 157.565,160.719 154.329 L 161.241 152.381 183.045 152.381 C 198.849 152.381,205.134 152.667,205.887 153.420 M138.585 217.346 C 140.642 218.447,141.233 260.152,139.221 262.165 C 137.743 263.642,96.023 263.642,94.545 262.165 C 93.068 260.687,93.068 218.967,94.545 217.489 C 95.892 216.143,136.093 216.013,138.585 217.346 M205.566 217.811 C 207.336 219.580,207.632 260.420,205.887 262.165 C 205.135 262.917,198.918 263.203,183.355 263.203 L 161.862 263.203 161.018 260.983 C 160.553 259.761,160.173 250.241,160.173 239.827 C 160.173 229.413,160.553 219.893,161.018 218.671 L 161.862 216.450 183.034 216.450 C 201.126 216.450,204.403 216.648,205.566 217.811 M339.642 372.935 C 342.397 373.107,346.683 373.106,349.166 372.932 C 351.648 372.757,349.394 372.616,344.156 372.618 C 338.918 372.620,336.887 372.763,339.642 372.935 M372.078 372.921 C 373.626 373.113,376.158 373.113,377.706 372.921 C 379.253 372.729,377.987 372.571,374.892 372.571 C 371.797 372.571,370.530 372.729,372.078 372.921 M331.332 376.316 C 331.004 376.644,330.736 379.561,330.736 382.798 C 330.736 389.449,331.680 390.586,336.580 389.841 C 339.315 389.426,340.569 390.724,338.312 391.634 C 337.446 391.984,337.446 392.085,338.312 392.139 C 339.074 392.188,339.394 394.109,339.394 398.645 C 339.394 408.274,340.488 410.198,346.753 411.595 C 348.651 412.018,349.001 411.937,348.052 411.295 C 346.914 410.525,346.924 410.414,348.134 410.403 C 351.255 410.373,352.381 407.538,352.381 399.715 C 352.381 394.294,352.682 392.204,353.463 392.195 C 354.260 392.185,354.235 391.985,353.371 391.437 C 351.589 390.308,353.102 389.874,359.524 389.674 L 365.368 389.491 365.368 396.854 C 365.368 405.193,366.156 408.007,369.009 409.853 C 371.395 411.396,376.947 412.799,374.892 411.339 C 373.764 410.537,373.786 410.414,375.059 410.403 C 377.920 410.377,379.221 406.953,379.221 399.447 C 379.221 394.581,379.561 392.215,380.303 391.915 C 381.169 391.566,381.169 391.465,380.303 391.410 C 377.431 391.229,379.710 390.014,383.334 389.795 C 388.519 389.481,389.610 388.082,389.610 381.745 C 389.610 378.588,389.220 376.663,388.528 376.406 C 386.769 375.751,331.983 375.665,331.332 376.316 " stroke="none" fill="hsl(43, 97%, 50%)" fill-rule="evenodd"></path></g></svg>