<svg id="svg" version="1.1" width="442" height="314" xmlns="http://www.w3.org/2000/svg" xmlns:xlink="http://www.w3.org/1999/xlink" ><g id="svgg"><path id="path0" d="M42.530 97.056 L 42.526 193.213 24.867 210.860 C 15.155 220.566,6.167 230.339,4.895 232.579 C -5.915 251.605,2.144 274.782,22.177 282.277 C 27.754 284.364,94.781 285.242,99.900 283.296 C 117.390 276.646,276.966 276.327,298.613 282.898 C 305.184 284.893,367.300 284.702,373.368 282.668 C 394.227 275.678,402.796 250.986,390.985 231.907 C 389.677 229.796,380.781 220.179,371.215 210.536 L 353.822 193.004 353.859 97.181 L 353.895 1.357 198.214 1.129 L 42.534 0.900 42.530 97.056 M324.887 107.374 L 324.887 184.615 198.190 184.615 L 71.493 184.615 71.493 107.768 C 71.493 57.325,71.804 30.816,72.398 30.618 C 72.896 30.452,129.910 30.275,199.095 30.224 L 324.887 30.132 324.887 107.374 M197.765 44.570 C 197.317 45.944,177.270 167.125,177.067 169.683 C 176.930 171.401,177.479 171.493,187.777 171.493 L 198.631 171.493 200.157 161.991 C 202.596 146.803,218.992 48.667,219.548 45.928 L 220.053 43.439 209.093 43.439 C 201.125 43.439,198.033 43.748,197.765 44.570 M127.637 90.086 C 111.391 109.607,112.389 107.429,117.244 112.755 C 117.769 113.331,123.622 120.369,130.252 128.395 C 141.222 141.674,144.066 144.360,144.947 142.272 C 145.113 141.879,148.194 139.192,151.794 136.300 C 159.480 130.127,159.817 131.811,148.076 117.738 L 139.470 107.421 148.920 96.256 C 154.118 90.115,158.371 84.917,158.371 84.705 C 158.371 83.996,144.091 72.398,143.218 72.398 C 142.745 72.398,135.733 80.358,127.637 90.086 M245.997 77.625 C 236.836 84.460,236.749 83.429,247.568 96.343 L 257.053 107.664 254.869 110.167 C 242.833 123.959,237.945 130.639,239.078 131.745 C 241.284 133.898,252.935 142.976,253.499 142.981 C 254.061 142.986,282.615 109.023,283.025 107.862 C 283.299 107.086,254.483 72.389,253.591 72.422 C 253.234 72.434,249.816 74.776,245.997 77.625 M350.050 230.923 C 369.082 249.709,370.497 252.029,364.706 254.943 C 362.327 256.141,39.609 256.745,33.701 255.564 C 25.099 253.843,26.948 250.343,47.040 230.311 L 63.737 213.664 198.159 213.671 L 332.581 213.678 350.050 230.923 " stroke="none" fill="#15012b" fill-rule="evenodd"></path></g></svg>