<svg id="svg" version="1.1" xmlns="http://www.w3.org/2000/svg" xmlns:xlink="http://www.w3.org/1999/xlink" width="400" height="367.6190476190476" viewBox="0, 0, 400,367.6190476190476"><g id="svgg"><path id="path0" d="M176.190 57.728 C 170.727 58.755,161.295 61.094,159.524 61.860 C 146.320 67.568,134.926 74.021,131.905 77.501 C 131.381 78.104,129.790 79.341,128.370 80.249 C 126.227 81.620,121.714 86.645,114.908 95.238 C 112.168 98.698,107.356 107.275,105.634 111.769 C 104.601 114.463,103.348 117.524,102.848 118.571 C 98.896 126.851,96.980 149.209,99.051 162.857 C 100.186 170.337,101.965 177.470,102.957 178.524 C 103.426 179.021,103.810 180.110,103.810 180.942 C 103.810 184.022,112.905 199.730,118.704 206.667 C 124.104 213.125,134.599 222.857,136.165 222.857 C 136.703 222.857,137.143 223.262,137.143 223.758 C 137.143 224.253,138.321 225.222,139.762 225.910 L 142.381 227.163 142.878 242.867 C 143.498 262.480,147.083 270.022,157.783 274.222 L 160.804 275.408 161.116 287.466 C 161.502 302.344,162.743 305.469,169.898 309.573 C 180.456 315.629,211.561 312.799,213.854 305.574 C 214.162 304.603,214.763 303.810,215.189 303.810 C 216.727 303.810,218.095 295.147,218.095 285.408 L 218.095 275.469 221.183 274.190 C 232.193 269.630,235.494 262.696,236.009 243.043 L 236.417 227.515 238.922 225.900 C 243.845 222.728,255.869 212.211,257.482 209.666 C 257.930 208.959,259.109 207.685,260.101 206.836 C 261.093 205.986,261.905 204.779,261.905 204.153 C 261.905 203.528,262.251 202.873,262.674 202.698 C 265.047 201.720,275.238 183.144,275.238 179.798 C 275.238 179.071,275.634 178.069,276.117 177.571 C 276.950 176.715,277.857 172.967,280.138 160.952 C 281.289 154.892,280.594 135.611,279.023 130.000 C 274.332 113.250,269.887 103.172,263.482 94.762 C 259.235 89.187,246.373 76.213,245.079 76.201 C 244.468 76.195,243.825 75.869,243.651 75.476 C 243.169 74.392,237.357 70.476,236.229 70.476 C 235.684 70.476,235.238 70.130,235.238 69.707 C 235.238 69.284,233.417 68.138,231.190 67.160 C 228.964 66.182,225.279 64.560,223.000 63.556 C 211.961 58.693,187.348 55.629,176.190 57.728 M76.150 67.269 C 67.254 72.794,68.707 78.809,82.258 92.560 C 96.660 107.175,103.290 108.940,108.204 99.468 C 111.511 93.095,110.531 91.160,97.305 77.934 C 84.063 64.692,81.986 63.645,76.150 67.269 M292.505 67.258 C 283.082 73.858,269.524 89.889,269.524 94.429 C 269.524 96.969,269.952 99.048,270.476 99.048 C 271.000 99.048,271.429 99.641,271.429 100.367 C 271.429 102.527,275.844 104.762,280.113 104.762 C 284.658 104.762,304.406 86.790,307.235 80.079 C 310.879 71.435,300.027 61.990,292.505 67.258 M199.609 79.026 C 208.343 80.186,220.195 84.426,226.390 88.607 C 228.690 90.159,230.764 91.429,231.000 91.429 C 231.652 91.429,246.020 106.101,247.402 108.179 C 259.261 126.003,263.731 156.607,256.499 170.463 C 255.812 171.780,255.247 173.333,255.244 173.914 C 255.215 179.080,234.872 205.714,230.955 205.714 C 230.744 205.714,228.667 206.999,226.340 208.570 C 221.651 211.735,209.065 217.134,206.366 217.140 C 205.415 217.141,203.795 217.593,202.767 218.144 C 197.934 220.730,169.672 218.411,166.238 215.146 C 165.740 214.673,164.734 214.286,164.001 214.286 C 157.153 214.286,134.848 196.098,129.932 186.506 C 129.037 184.761,128.044 183.119,127.724 182.857 C 126.267 181.663,122.128 171.040,121.017 165.641 C 120.631 163.767,120.005 161.731,119.625 161.116 C 118.583 159.429,118.818 136.564,119.899 134.584 C 120.417 133.634,121.572 130.286,122.466 127.143 C 127.588 109.137,144.713 90.447,162.246 83.729 C 164.939 82.697,168.000 81.447,169.048 80.953 C 171.354 79.863,188.471 77.260,190.476 77.694 C 191.262 77.864,195.372 78.464,199.609 79.026 M184.762 93.968 C 179.788 95.409,179.524 97.277,179.524 130.975 C 179.524 161.131,179.602 162.507,181.429 164.404 C 184.368 167.458,188.788 168.619,192.793 167.390 C 199.725 165.262,199.524 166.358,199.524 130.774 L 199.524 98.891 196.414 96.112 C 193.402 93.421,189.272 92.661,184.762 93.968 M153.350 130.228 C 146.191 133.038,139.326 163.254,144.401 169.617 C 144.987 170.352,145.756 172.560,146.109 174.524 C 146.463 176.488,147.116 178.095,147.559 178.095 C 148.002 178.095,148.636 179.175,148.967 180.495 C 149.832 183.940,162.561 196.365,167.619 198.701 C 176.974 203.022,178.454 203.334,189.524 203.310 C 210.188 203.265,233.333 186.806,233.333 172.156 C 233.333 171.442,233.856 170.334,234.495 169.695 C 238.605 165.585,234.411 139.556,228.494 132.455 C 220.608 122.992,206.092 134.474,211.855 145.618 C 218.527 158.521,211.750 178.119,199.742 180.644 C 198.291 180.949,196.873 181.572,196.591 182.028 C 195.535 183.735,183.377 182.935,179.119 180.878 C 173.898 178.356,166.726 171.011,166.015 167.458 C 165.715 165.953,165.095 164.492,164.639 164.210 C 162.581 162.938,165.233 145.878,167.904 143.207 C 168.939 142.172,168.691 135.238,167.619 135.238 C 167.095 135.238,166.667 134.620,166.667 133.864 C 166.667 130.580,158.285 128.291,153.350 130.228 M59.305 138.720 C 53.395 139.987,51.115 150.649,55.632 155.899 L 57.930 158.571 72.083 158.571 C 84.941 158.571,86.416 158.397,88.214 156.667 C 90.671 154.301,92.672 148.663,91.559 147.240 C 91.108 146.663,90.481 145.119,90.167 143.810 C 89.063 139.217,70.933 136.227,59.305 138.720 M295.238 138.716 C 289.306 140.671,286.898 144.890,288.085 151.253 C 289.334 157.951,290.935 158.571,306.965 158.571 L 321.117 158.571 323.416 155.899 C 328.518 149.968,325.416 140.178,317.963 138.688 C 314.525 138.000,297.346 138.022,295.238 138.716 M84.114 203.095 C 69.068 217.873,67.919 220.534,73.701 227.222 C 79.983 234.488,83.596 233.225,97.771 218.812 C 111.673 204.676,112.708 201.799,106.123 195.589 C 99.701 189.532,96.979 190.461,84.114 203.095 M274.762 193.486 C 270.145 196.025,267.851 203.500,270.435 207.585 C 273.356 212.204,292.266 229.691,295.339 230.615 C 303.272 233.001,311.071 224.083,307.340 216.892 C 305.629 213.595,286.604 194.286,285.065 194.286 C 284.375 194.286,283.810 193.857,283.810 193.333 C 283.810 192.058,277.155 192.170,274.762 193.486 M169.380 238.333 C 170.815 239.769,206.010 240.046,209.048 238.646 C 214.659 236.060,215.330 236.844,215.034 245.644 C 214.669 256.529,215.584 256.159,189.021 256.176 C 162.900 256.194,163.810 256.591,163.810 245.184 C 163.810 236.765,165.605 234.557,169.380 238.333 M197.143 283.842 C 197.143 292.408,197.172 292.381,188.017 292.381 L 181.905 292.381 181.905 284.236 L 181.905 276.091 189.524 276.275 L 197.143 276.459 197.143 283.842 " stroke="none" fill="hsl(43, 97%, 50%)" fill-rule="evenodd"></path></g></svg>