<svg xmlns="http://www.w3.org/2000/svg" width="294" height="502" viewBox="0 0 294 502">
<g>
<path d="M 25.27 498.47 C15.47,495.81 7.49,489.16 3.12,480.00 L 0.50 474.50 L 0.24 252.54 C0.00,53.10 0.14,30.04 1.55,25.17 C4.48,15.11 10.86,7.48 20.00,3.12 L 25.50 0.50 L 146.50 0.50 L 267.50 0.50 L 274.00 3.61 C281.96,7.43 287.44,12.74 290.89,20.00 L 293.50 25.50 L 293.76 247.46 C294.00,446.90 293.86,469.96 292.45,474.83 C289.52,484.89 283.14,492.52 274.00,496.88 L 268.50 499.50 L 149.50 499.70 C49.36,499.86 29.67,499.67 25.27,498.47 ZM 156.55 476.52 C165.55,472.00 169.48,462.61 166.57,452.59 C164.64,445.95 160.92,441.32 155.54,438.88 C141.77,432.62 125.04,443.14 125.01,458.07 C124.99,465.44 130.93,474.73 137.50,477.61 C142.54,479.81 150.94,479.33 156.55,476.52 ZM 245.48 404.61 C246.79,403.30 248.14,400.71 248.47,398.86 C248.80,397.01 248.94,320.50 248.79,228.82 L 248.50 62.15 L 246.39 59.32 L 244.28 56.50 L 147.70 56.25 L 51.12 55.99 L 48.31 58.41 L 45.50 60.83 L 45.21 228.16 C45.06,320.20 45.20,397.01 45.53,398.86 C45.86,400.71 47.21,403.30 48.52,404.61 L 50.91 407.00 L 147.00 407.00 L 243.09 407.00 L 245.48 404.61 ZM 91.75 299.31 C87.77,298.27 90.47,294.51 108.18,276.46 L 126.36 257.91 L 131.93 263.40 C138.07,269.45 141.16,271.00 147.10,271.00 C152.79,271.00 157.81,268.59 163.30,263.20 L 168.11 258.50 L 186.05 276.65 C203.59,294.40 206.16,297.96 202.42,299.39 C200.61,300.09 94.42,300.01 91.75,299.31 ZM 78.04 285.07 C76.87,282.89 76.74,220.15 77.89,216.01 C78.28,214.63 79.24,213.39 80.04,213.24 C80.84,213.08 89.73,221.21 99.79,231.28 L 118.09 249.61 L 99.95 268.30 C89.98,278.59 81.20,287.00 80.44,287.00 C79.69,287.00 78.60,286.13 78.04,285.07 ZM 200.41 274.75 C193.83,268.01 185.79,259.67 182.53,256.21 L 176.61 249.91 L 194.54 231.96 C204.41,222.08 213.22,214.00 214.12,214.00 C215.03,214.00 216.04,215.01 216.37,216.25 C217.39,220.05 217.08,281.67 216.02,284.43 C215.49,285.85 214.45,287.00 213.71,287.00 C212.98,287.00 206.99,281.49 200.41,274.75 ZM 144.50 258.61 C140.60,256.90 90.00,205.23 90.00,202.95 C90.00,202.00 90.71,200.94 91.58,200.61 C94.44,199.51 200.98,199.92 203.07,201.04 C204.13,201.60 205.00,202.63 205.00,203.31 C205.00,204.77 149.86,260.02 148.46,259.96 C147.93,259.94 146.15,259.33 144.50,258.61 Z" fill="#15012b"/>
</g>
</svg>