<svg id="svg" xmlns="http://www.w3.org/2000/svg" xmlns:xlink="http://www.w3.org/1999/xlink" width="400" height="394.3661971830986" viewBox="0, 0, 400,394.3661971830986"><g id="svgg"><path id="path0" d="M258.685 4.133 C 255.587 4.843,249.442 7.140,245.029 9.237 L 237.007 13.051 228.792 9.789 C 207.211 1.221,183.638 2.129,174.525 11.880 C 169.369 17.398,172.894 41.810,180.707 54.695 C 182.690 57.966,183.511 60.094,182.789 60.094 C 173.479 60.094,166.609 77.087,171.803 87.268 L 173.652 90.894 164.622 100.142 C 159.655 105.228,154.492 111.080,153.148 113.146 C 151.804 115.211,149.420 118.613,147.850 120.705 C 136.448 135.901,119.736 174.297,113.068 200.618 C 111.367 207.333,111.361 207.341,105.683 210.630 C 93.790 217.517,88.563 217.664,85.596 211.197 C 83.986 207.687,82.255 205.698,79.029 203.651 L 74.648 200.871 43.982 201.139 L 13.317 201.408 9.771 204.280 C 1.643 210.861,2.382 203.302,2.074 282.932 C 1.924 321.756,2.057 354.943,2.371 356.680 C 3.346 362.073,10.421 368.705,16.559 369.979 C 25.154 371.764,73.876 370.843,77.560 368.826 C 80.954 366.969,85.948 361.541,86.835 358.747 C 88.846 352.410,119.006 362.276,171.564 386.462 C 186.506 393.337,195.952 393.076,210.798 385.378 C 214.413 383.503,222.864 379.105,229.577 375.604 C 236.291 372.104,251.502 364.273,263.380 358.202 C 275.258 352.132,289.413 344.847,294.836 342.015 C 300.258 339.182,313.779 332.212,324.883 326.526 C 357.557 309.794,373.857 301.332,379.064 298.398 C 407.589 282.324,400.917 239.880,369.746 239.122 L 363.381 238.967 363.381 234.600 C 363.376 195.832,332.941 125.756,303.810 97.442 L 297.292 91.106 299.558 87.103 C 304.212 78.877,301.857 67.984,294.379 63.151 L 290.375 60.563 292.967 55.399 C 300.107 41.175,302.866 19.894,298.279 14.442 C 291.042 5.842,272.404 0.989,258.685 4.133 M215.482 19.716 C 219.515 20.747,225.393 23.018,228.543 24.763 C 248.581 35.856,267.687 39.457,283.382 35.098 C 287.522 33.948,281.847 49.029,275.835 55.155 L 271.909 59.155 236.537 59.155 L 201.165 59.155 197.897 55.164 C 191.557 47.425,187.649 37.928,186.079 26.449 L 185.283 20.625 189.590 19.298 C 195.906 17.352,206.938 17.530,215.482 19.716 M286.447 74.211 C 288.673 75.403,288.798 78.603,286.709 80.912 C 284.354 83.514,186.379 83.585,184.406 80.986 C 182.728 78.775,182.789 76.500,184.574 74.715 C 186.374 72.915,283.130 72.436,286.447 74.211 M253.052 147.004 C 306.781 161.587,323.325 230.556,281.690 266.394 C 277.410 270.079,275.473 270.914,250.498 279.845 C 228.206 287.817,209.820 283.925,190.471 267.140 C 182.280 260.035,182.030 259.039,187.458 255.135 C 202.326 244.443,211.243 234.376,215.579 223.388 L 218.021 217.198 224.491 219.632 L 230.962 222.066 230.974 231.765 L 230.986 241.464 227.934 240.813 C 226.256 240.455,223.192 239.583,221.127 238.874 C 213.313 236.194,209.390 237.495,209.390 242.765 C 209.390 247.502,215.721 251.030,226.526 252.314 C 230.969 252.842,230.986 252.857,230.986 256.402 C 230.986 265.275,240.179 265.448,240.527 256.582 C 240.673 252.857,240.741 252.787,244.754 252.237 C 260.323 250.103,268.516 231.932,258.865 220.940 C 255.916 217.581,246.130 212.209,242.958 212.207 C 241.497 212.207,241.315 211.111,241.315 202.347 L 241.315 192.488 244.162 192.488 C 245.727 192.488,248.542 193.129,250.416 193.912 C 255.574 196.067,259.993 193.850,260.064 189.071 C 260.124 185.064,257.251 183.115,248.755 181.399 C 243.160 180.270,240.823 179.409,241.100 178.579 C 242.132 175.481,238.917 169.953,236.083 169.953 C 233.636 169.953,230.986 173.569,230.986 176.909 C 230.986 179.993,230.775 180.180,225.189 182.067 C 222.001 183.144,219.357 183.922,219.315 183.796 C 219.272 183.671,218.253 180.610,217.050 176.995 C 213.686 166.888,208.187 159.290,201.369 155.329 C 198.591 153.715,216.505 146.722,227.230 145.234 C 232.951 144.440,247.205 145.417,253.052 147.004 M198.437 171.127 C 209.501 185.885,209.538 208.243,198.526 225.477 C 194.677 231.500,192.340 233.649,174.157 247.887 C 164.460 255.481,161.588 261.658,163.535 270.737 C 165.043 277.767,168.771 281.004,190.128 293.826 C 214.498 308.459,213.797 308.329,231.930 301.585 C 248.869 295.285,271.793 286.928,292.958 279.336 C 312.703 272.253,328.879 266.372,351.021 258.226 C 374.275 249.671,383.084 252.191,383.095 267.401 C 383.104 280.431,381.415 281.845,341.315 302.360 C 329.953 308.173,314.742 315.983,307.512 319.715 C 300.282 323.448,280.845 333.383,264.319 341.793 C 247.793 350.202,233.850 357.392,233.333 357.769 C 229.914 360.266,195.695 376.733,193.026 377.166 C 188.289 377.935,180.940 375.257,146.948 360.375 C 114.704 346.258,104.247 342.723,94.729 342.723 L 88.263 342.723 88.263 286.385 L 88.263 230.047 91.920 230.047 C 101.167 230.047,108.219 226.415,134.742 207.989 C 138.357 205.477,145.329 200.677,150.235 197.321 C 155.141 193.965,163.803 188.035,169.484 184.142 C 196.407 165.696,194.880 166.383,198.437 171.127 M230.986 200.909 C 230.986 210.191,230.844 210.323,225.117 206.356 C 219.940 202.769,224.048 192.659,230.751 192.494 C 230.880 192.491,230.986 196.278,230.986 200.909 M270.586 208.746 C 267.872 211.635,267.807 217.633,270.459 220.480 C 275.103 225.465,284.507 221.738,284.507 214.913 C 284.507 207.464,275.527 203.486,270.586 208.746 M246.291 226.892 C 253.072 230.365,250.982 239.032,242.907 240.926 L 240.274 241.544 240.559 233.451 C 240.873 224.580,241.152 224.259,246.291 226.892 M65.660 327.357 C 68.361 330.791,68.206 335.635,65.301 338.540 C 58.998 344.844,48.829 336.803,52.972 328.792 C 55.448 324.005,62.404 323.218,65.660 327.357 " stroke="none" fill="#077878" fill-rule="evenodd"></path></g></svg>