<svg id="svg" xmlns="http://www.w3.org/2000/svg" xmlns:xlink="http://www.w3.org/1999/xlink" width="400" height="388.785046728972" viewBox="0, 0, 400,388.785046728972"><g id="svgg"><path id="path0" d="M71.714 8.406 C 69.185 10.395,69.159 10.531,69.159 21.563 L 69.159 32.710 36.474 32.710 L 3.788 32.710 3.530 63.144 C 3.387 79.882,3.573 94.391,3.942 95.387 C 4.720 97.485,304.798 98.327,306.092 96.234 C 306.642 95.344,306.768 83.264,306.606 46.963 L 306.542 32.710 273.598 32.602 C 255.479 32.542,241.395 32.300,242.301 32.064 C 243.207 31.828,243.704 31.239,243.405 30.755 C 243.106 30.272,242.470 30.118,241.991 30.414 C 241.486 30.726,241.161 28.480,241.215 25.055 C 241.284 20.686,241.502 19.764,242.056 21.495 C 242.724 23.581,242.814 23.455,242.897 20.327 C 242.949 18.400,242.595 16.822,242.112 16.822 C 241.630 16.822,241.104 15.287,240.944 13.411 C 240.540 8.652,236.844 5.890,232.534 7.126 C 228.164 8.380,227.133 11.159,227.117 21.729 C 227.104 29.754,226.908 30.849,225.467 30.907 C 224.069 30.963,224.103 31.089,225.701 31.776 C 226.763 32.232,196.298 32.554,155.140 32.522 C 115.304 32.490,84.182 32.154,85.981 31.776 L 89.252 31.087 86.215 30.964 L 83.178 30.841 83.178 21.132 C 83.178 8.024,78.625 2.970,71.714 8.406 M69.040 59.440 C 68.707 69.052,70.332 71.963,76.030 71.963 C 81.301 71.963,83.178 68.739,83.178 59.687 C 83.178 51.816,83.617 51.159,86.691 54.439 C 93.961 62.200,91.548 73.742,81.588 78.842 C 72.114 83.694,59.901 74.738,61.041 63.775 C 61.503 59.333,65.258 53.034,67.045 53.704 C 67.681 53.943,68.157 53.838,68.102 53.471 C 67.926 52.285,68.211 51.402,68.771 51.402 C 69.072 51.402,69.192 55.019,69.040 59.440 M227.570 59.719 C 227.570 69.439,228.949 71.963,234.257 71.963 C 240.004 71.963,242.956 63.953,241.232 53.037 C 240.989 51.500,243.278 52.480,245.786 54.988 C 251.923 61.125,250.373 72.176,242.651 77.336 C 227.097 87.732,210.144 65.792,224.438 53.765 C 225.982 52.465,227.319 51.403,227.408 51.404 C 227.497 51.405,227.570 55.146,227.570 59.719 M4.133 108.529 C 3.934 108.850,3.749 153.009,3.721 206.659 L 3.670 304.206 73.441 304.445 L 143.211 304.685 142.636 302.109 C 132.707 257.602,137.722 224.256,159.306 191.273 C 167.033 179.464,189.138 157.077,193.153 156.993 C 193.578 156.984,194.928 155.920,196.154 154.627 C 197.380 153.335,198.589 152.483,198.840 152.734 C 199.091 152.985,200.611 152.203,202.218 150.996 C 214.242 141.968,240.827 133.689,262.617 132.186 C 273.857 131.411,299.994 134.332,300.002 136.364 C 300.006 137.282,306.034 137.217,306.623 136.292 C 307.186 135.407,306.787 109.279,306.201 108.693 C 305.605 108.097,4.501 107.933,4.133 108.529 M133.645 141.956 C 133.645 148.786,134.082 148.598,118.148 148.598 L 105.607 148.598 105.607 142.523 L 105.607 136.449 119.626 136.449 L 133.645 136.449 133.645 141.956 M198.598 137.383 C 197.000 138.070,196.966 138.196,198.364 138.252 C 201.344 138.372,200.590 145.212,197.430 146.727 C 194.425 148.168,170.735 149.233,172.763 147.836 C 173.688 147.199,173.740 146.782,172.954 146.297 C 172.327 145.909,171.965 143.716,172.087 141.040 L 172.297 136.449 186.382 136.514 C 195.121 136.555,199.758 136.885,198.598 137.383 M253.143 142.994 C 232.950 146.204,211.194 154.897,197.649 165.168 C 152.492 199.409,135.871 256.463,155.919 308.411 C 157.804 313.294,159.354 317.718,159.363 318.242 C 159.373 318.765,160.319 320.132,161.466 321.279 C 162.613 322.426,163.551 323.808,163.551 324.350 C 163.551 324.893,165.290 327.896,167.414 331.025 C 169.539 334.153,170.695 336.362,169.984 335.934 C 168.111 334.806,170.521 337.923,174.717 342.056 C 176.543 343.855,179.154 346.727,180.519 348.438 C 181.884 350.149,183.251 351.516,183.556 351.475 C 183.862 351.435,184.203 351.717,184.313 352.103 C 184.877 354.066,209.929 371.963,212.114 371.963 C 212.647 371.963,213.084 372.408,213.084 372.952 C 213.084 373.497,213.471 373.703,213.943 373.411 C 214.416 373.119,215.372 373.410,216.068 374.057 C 216.765 374.704,217.895 375.354,218.580 375.501 C 219.266 375.648,220.466 376.408,221.249 377.190 C 222.031 377.972,223.269 378.383,224.001 378.102 C 224.738 377.819,225.076 378.004,224.760 378.515 C 224.432 379.046,225.383 379.439,226.992 379.439 C 228.535 379.439,230.056 379.860,230.374 380.374 C 230.692 380.888,231.768 381.308,232.765 381.308 C 233.763 381.308,234.579 380.888,234.579 380.374 C 234.579 379.860,235.145 379.439,235.836 379.439 C 239.656 379.439,241.097 374.189,238.483 369.796 C 237.122 367.507,226.095 361.682,223.124 361.682 C 222.706 361.682,218.097 359.054,212.883 355.841 C 160.458 323.541,145.673 252.878,180.864 202.804 C 231.011 131.449,339.166 145.619,369.892 227.570 C 372.462 234.425,373.402 237.729,374.363 243.297 C 374.556 244.414,375.129 247.590,375.637 250.356 C 378.305 264.872,375.844 284.380,369.050 302.569 C 364.279 315.342,351.402 335.983,351.402 330.858 C 351.402 329.572,351.791 329.102,352.495 329.537 C 353.241 329.998,353.389 329.694,352.963 328.582 C 352.618 327.684,352.295 326.038,352.243 324.924 C 352.158 323.079,352.089 323.107,351.471 325.234 C 350.943 327.049,350.639 326.209,350.110 321.473 C 349.736 318.120,349.702 314.545,350.036 313.529 C 350.529 312.030,350.454 311.946,349.635 313.084 C 348.632 314.478,348.457 313.537,348.198 305.374 C 348.104 302.422,344.069 298.131,341.388 298.131 C 337.411 298.131,333.741 300.631,334.342 302.931 C 334.707 304.327,334.535 304.756,333.792 304.297 C 333.149 303.899,332.710 304.219,332.710 305.085 C 332.710 305.886,333.131 306.542,333.645 306.542 C 334.159 306.542,334.579 308.120,334.579 310.048 C 334.579 315.623,340.055 351.518,341.097 352.774 C 341.615 353.399,341.851 354.099,341.621 354.329 C 341.390 354.560,342.124 354.818,343.251 354.903 C 344.377 354.988,345.446 355.496,345.625 356.033 C 346.017 357.211,349.533 357.352,349.533 356.190 C 349.533 355.740,351.741 355.147,354.439 354.872 C 357.138 354.597,363.341 353.748,368.224 352.984 C 373.107 352.221,379.626 351.330,382.710 351.005 C 394.063 349.806,395.031 349.524,396.140 347.091 C 397.577 343.937,397.420 340.094,395.765 337.905 C 395.010 336.908,394.393 336.397,394.393 336.770 C 394.393 337.143,393.620 337.036,392.677 336.531 C 391.565 335.936,388.853 335.927,384.967 336.505 C 363.686 339.674,363.907 339.675,366.591 336.449 C 367.797 334.999,368.310 334.733,367.941 335.748 C 367.615 336.647,367.651 337.373,368.020 337.361 C 368.805 337.336,383.006 308.376,383.591 305.607 C 384.341 302.060,386.421 296.100,387.044 295.715 C 387.488 295.441,387.850 293.324,387.850 291.011 C 387.850 288.698,388.213 287.030,388.656 287.303 C 389.099 287.577,389.430 286.445,389.393 284.788 C 389.229 277.547,389.788 271.558,390.520 272.712 C 391.354 274.027,391.140 258.401,390.291 256.075 C 390.010 255.304,389.599 251.597,389.378 247.837 C 389.157 244.077,388.723 240.748,388.413 240.438 C 388.104 240.129,387.850 238.819,387.850 237.527 C 387.850 235.312,386.660 230.817,384.965 226.636 C 378.154 209.834,373.729 201.105,368.971 195.093 C 367.446 193.166,366.475 191.589,366.814 191.589 C 367.153 191.589,365.721 189.801,363.632 187.617 C 361.543 185.432,359.829 183.358,359.823 183.007 C 359.818 182.656,355.678 178.661,350.625 174.128 C 340.061 164.655,337.383 162.433,337.383 163.141 C 337.383 163.419,336.016 162.620,334.346 161.364 C 316.686 148.096,277.218 139.168,253.143 142.994 M68.154 162.676 C 74.526 165.417,82.275 174.443,84.388 181.585 C 86.312 188.090,87.066 192.726,86.102 192.131 C 85.670 191.864,85.515 192.683,85.757 193.951 C 88.761 209.662,61.905 228.733,45.539 222.510 C 30.189 216.675,23.342 207.958,22.613 193.327 C 21.366 168.295,44.704 152.588,68.154 162.676 M60.335 175.025 C 58.424 177.710,55.192 182.547,53.153 185.775 L 49.446 191.643 45.515 188.422 C 41.077 184.785,40.410 184.962,36.478 190.817 C 35.210 192.706,33.881 194.071,33.524 193.850 C 32.433 193.176,33.179 195.977,34.522 197.594 C 37.375 201.032,52.506 212.350,53.217 211.578 C 55.311 209.304,74.766 179.047,74.766 178.063 C 74.766 177.437,73.925 176.164,72.897 175.234 C 71.869 174.303,71.028 173.846,71.028 174.218 C 71.028 174.590,69.871 174.093,68.458 173.114 C 67.044 172.135,65.420 171.066,64.849 170.739 C 64.261 170.401,62.301 172.262,60.335 175.025 M133.645 195.794 L 133.645 201.869 119.626 201.869 L 105.607 201.869 105.607 195.794 L 105.607 189.720 119.626 189.720 L 133.645 189.720 133.645 195.794 M257.751 205.741 L 257.477 212.417 253.526 213.580 C 236.231 218.673,226.687 238.717,233.976 254.638 C 235.289 257.506,236.461 260.159,236.580 260.534 C 237.713 264.094,251.847 271.117,263.308 273.815 C 282.667 278.372,288.562 283.344,281.961 289.546 C 277.893 293.367,261.442 294.485,260.116 291.030 C 259.842 290.315,259.176 290.003,258.636 290.337 C 258.097 290.670,257.906 290.536,258.214 290.039 C 258.521 289.542,257.745 287.941,256.490 286.480 C 254.095 283.693,234.875 282.148,232.178 284.527 C 230.946 285.613,231.996 293.079,233.913 296.873 C 234.653 298.336,235.047 300.164,234.791 300.935 C 234.534 301.706,234.659 302.023,235.070 301.640 C 235.480 301.258,236.776 302.358,237.950 304.086 C 240.141 307.311,248.286 313.239,252.195 314.455 C 256.306 315.734,258.100 318.447,257.822 322.963 C 257.481 328.519,257.976 328.806,268.224 328.989 C 282.608 329.246,281.186 329.972,281.501 322.211 C 281.746 316.171,281.975 315.449,283.645 315.435 C 284.673 315.427,287.301 314.466,289.486 313.299 C 291.671 312.132,293.458 311.476,293.458 311.842 C 293.458 312.208,294.075 311.690,294.830 310.693 C 295.585 309.695,296.216 309.240,296.232 309.681 C 296.281 310.995,303.589 301.729,305.320 298.159 C 310.385 287.710,304.516 262.749,296.372 260.103 C 295.540 259.833,291.725 258.107,287.895 256.267 C 284.064 254.427,280.068 252.824,279.016 252.704 C 267.533 251.399,257.009 247.644,257.009 244.852 C 257.009 243.768,256.589 243.140,256.075 243.458 C 255.561 243.776,255.140 243.310,255.140 242.423 C 255.140 241.536,255.418 241.088,255.757 241.427 C 256.407 242.077,259.471 238.286,259.137 237.245 C 259.030 236.913,259.835 236.874,260.926 237.159 C 262.155 237.481,262.683 237.312,262.314 236.715 C 261.410 235.251,267.788 234.545,272.995 235.533 C 279.317 236.731,282.850 238.756,283.560 241.585 L 284.162 243.982 295.586 243.720 L 307.009 243.458 306.858 239.016 C 306.487 228.133,297.404 217.593,285.280 213.974 L 281.308 212.788 281.308 205.927 L 281.308 199.065 269.667 199.065 L 258.026 199.065 257.751 205.741 M66.369 245.093 C 66.379 245.872,66.686 245.794,67.290 244.860 C 67.928 243.872,68.200 245.183,68.210 249.299 L 68.224 255.140 53.738 255.140 L 39.252 255.140 39.265 251.636 C 39.294 243.658,38.804 243.925,53.380 243.925 C 63.129 243.925,66.359 244.216,66.369 245.093 M133.645 249.533 L 133.645 255.140 119.626 255.140 L 105.607 255.140 105.607 249.533 L 105.607 243.925 119.626 243.925 L 133.645 243.925 133.645 249.533 M315.888 360.961 C 314.603 361.522,311.185 363.000,308.293 364.244 C 300.801 367.468,298.757 372.674,303.229 377.145 C 305.547 379.464,313.963 380.682,312.617 378.505 C 312.128 377.714,312.991 377.439,315.454 377.603 C 315.729 377.622,316.583 377.009,317.350 376.241 C 318.118 375.474,319.364 375.083,320.121 375.373 C 320.877 375.664,321.495 375.435,321.495 374.866 C 321.495 374.297,322.049 373.832,322.725 373.832 C 323.401 373.832,324.873 372.197,325.996 370.200 C 328.224 366.236,328.726 363.016,326.944 364.117 C 326.183 364.587,326.056 364.257,326.526 363.032 C 326.898 362.064,326.914 361.560,326.562 361.911 C 326.210 362.263,325.043 361.935,323.968 361.182 C 321.699 359.593,319.176 359.524,315.888 360.961 M260.748 372.611 C 256.309 374.198,255.614 381.010,259.574 384.125 C 262.985 386.808,279.206 386.621,281.957 383.866 C 284.289 381.532,284.167 375.243,281.754 373.419 C 279.917 372.030,264.079 371.421,260.748 372.611 " stroke="none" fill="#077878" fill-rule="evenodd"></path></g></svg>