<svg xmlns="http://www.w3.org/2000/svg" version="1.1" xmlns:xlink="http://www.w3.org/1999/xlink" xmlns:svgjs="http://svgjs.dev/svgjs" viewBox="0 0 1422 800" opacity="1"><defs><linearGradient x1="50%" y1="0%" x2="50%" y2="100%" id="oooscillate-grad"><stop stop-color="#077878" stop-opacity="1" offset="0%"></stop><stop stop-color=" #35006e" stop-opacity="1" offset="100%"></stop></linearGradient></defs><g stroke-width="7" stroke="url(#oooscillate-grad)" fill="none" stroke-linecap="round"><path d="M 0 2800 Q 355.5 -100 711 400 Q 1066.5 900 1422 2800" opacity="0.56"></path><path d="M 0 2688 Q 355.5 -100 711 400 Q 1066.5 900 1422 2688" opacity="0.26"></path><path d="M 0 2576 Q 355.5 -100 711 400 Q 1066.5 900 1422 2576" opacity="0.47"></path><path d="M 0 2464 Q 355.5 -100 711 400 Q 1066.5 900 1422 2464" opacity="0.98"></path><path d="M 0 2352 Q 355.5 -100 711 400 Q 1066.5 900 1422 2352" opacity="0.76"></path><path d="M 0 2240 Q 355.5 -100 711 400 Q 1066.5 900 1422 2240" opacity="0.79"></path><path d="M 0 2128 Q 355.5 -100 711 400 Q 1066.5 900 1422 2128" opacity="0.60"></path><path d="M 0 2016 Q 355.5 -100 711 400 Q 1066.5 900 1422 2016" opacity="0.45"></path><path d="M 0 1904 Q 355.5 -100 711 400 Q 1066.5 900 1422 1904" opacity="0.37"></path><path d="M 0 1792 Q 355.5 -100 711 400 Q 1066.5 900 1422 1792" opacity="0.69"></path><path d="M 0 1680 Q 355.5 -100 711 400 Q 1066.5 900 1422 1680" opacity="0.96"></path><path d="M 0 1568 Q 355.5 -100 711 400 Q 1066.5 900 1422 1568" opacity="0.46"></path><path d="M 0 1456 Q 355.5 -100 711 400 Q 1066.5 900 1422 1456" opacity="0.18"></path><path d="M 0 1344 Q 355.5 -100 711 400 Q 1066.5 900 1422 1344" opacity="0.25"></path><path d="M 0 1232 Q 355.5 -100 711 400 Q 1066.5 900 1422 1232" opacity="0.18"></path><path d="M 0 1120 Q 355.5 -100 711 400 Q 1066.5 900 1422 1120" opacity="0.79"></path><path d="M 0 1008 Q 355.5 -100 711 400 Q 1066.5 900 1422 1008" opacity="0.21"></path><path d="M 0 896 Q 355.5 -100 711 400 Q 1066.5 900 1422 896" opacity="0.23"></path><path d="M 0 784 Q 355.5 -100 711 400 Q 1066.5 900 1422 784" opacity="0.65"></path><path d="M 0 672 Q 355.5 -100 711 400 Q 1066.5 900 1422 672" opacity="0.29"></path><path d="M 0 560 Q 355.5 -100 711 400 Q 1066.5 900 1422 560" opacity="0.83"></path><path d="M 0 448 Q 355.5 -100 711 400 Q 1066.5 900 1422 448" opacity="0.82"></path><path d="M 0 336 Q 355.5 -100 711 400 Q 1066.5 900 1422 336" opacity="0.60"></path><path d="M 0 224 Q 355.5 -100 711 400 Q 1066.5 900 1422 224" opacity="0.88"></path></g></svg>