<svg id="svg" version="1.1" xmlns="http://www.w3.org/2000/svg" xmlns:xlink="http://www.w3.org/1999/xlink" width="400" height="378.9473684210526" viewBox="0, 0, 400,378.9473684210526"><g id="svgg"><path id="path0" d="M83.521 61.238 C 74.427 67.855,57.663 84.881,51.905 93.347 C 49.416 97.006,46.851 100.565,46.205 101.256 C 45.558 101.946,43.977 104.578,42.690 107.104 C 41.404 109.629,39.998 111.964,39.566 112.292 C 39.135 112.620,38.420 114.331,37.978 116.094 C 37.535 117.856,36.704 119.298,36.131 119.298 C 35.557 119.298,35.088 119.877,35.088 120.583 C 35.088 121.290,34.372 123.527,33.498 125.554 C 30.011 133.635,28.919 136.472,27.350 141.520 C 18.054 171.438,18.669 211.823,28.865 240.936 C 32.729 251.969,44.109 275.725,46.794 278.363 C 47.121 278.684,48.700 280.917,50.303 283.325 C 51.905 285.733,53.611 287.707,54.094 287.711 C 54.576 287.716,54.971 288.291,54.971 288.990 C 54.971 291.544,75.820 312.273,84.835 318.683 L 90.636 322.807 181.341 322.807 L 272.047 322.807 279.006 317.667 C 287.601 311.319,305.890 292.664,311.234 284.795 C 313.418 281.579,315.468 278.684,315.789 278.363 C 318.539 275.613,330.254 251.309,333.831 240.936 C 344.490 210.017,344.227 160.882,333.269 136.257 C 332.697 134.971,331.215 131.287,329.978 128.070 C 327.284 121.072,317.632 102.394,315.774 100.585 C 315.443 100.263,313.164 97.039,310.708 93.420 C 305.398 85.594,286.021 66.083,277.782 60.266 L 271.937 56.140 181.232 56.140 L 90.527 56.140 83.521 61.238 M261.988 86.550 C 263.472 87.836,265.016 88.889,265.420 88.889 C 268.871 88.889,291.550 116.279,295.486 125.201 C 296.608 127.744,297.951 129.825,298.471 129.825 C 298.990 129.825,299.418 130.482,299.422 131.287 C 299.426 132.091,300.105 134.064,300.930 135.673 C 320.899 174.596,313.464 235.784,284.631 269.818 C 283.435 271.230,281.183 274.030,279.627 276.041 C 276.107 280.590,268.541 287.843,263.223 291.766 L 259.195 294.737 180.906 294.737 L 102.618 294.737 95.434 288.624 C 60.985 259.311,43.146 207.522,52.621 164.327 C 54.899 153.941,56.304 148.947,57.936 145.437 C 58.878 143.410,59.649 141.215,59.649 140.558 C 59.649 139.902,62.078 134.718,65.046 129.039 C 73.473 112.914,84.078 99.802,98.830 87.266 L 102.339 84.284 180.815 84.247 C 257.640 84.211,259.348 84.260,261.988 86.550 M118.129 154.386 L 118.129 190.643 128.070 190.643 L 138.012 190.643 138.012 154.386 L 138.012 118.129 128.070 118.129 L 118.129 118.129 118.129 154.386 M224.561 153.801 L 224.561 181.287 234.503 181.287 L 244.444 181.287 244.444 153.801 L 244.444 126.316 234.503 126.316 L 224.561 126.316 224.561 153.801 M174.484 224.629 C 168.614 225.799,162.732 229.180,160.234 232.819 C 159.269 234.224,157.690 236.192,156.725 237.191 C 155.340 238.625,154.893 243.154,154.601 258.685 L 154.232 278.363 181.210 278.363 L 208.187 278.363 208.407 266.959 C 208.842 244.369,207.377 237.203,201.116 231.302 C 195.019 225.554,183.865 222.760,174.484 224.629 " stroke="none" fill="hsl(43, 97%, 50%)" fill-rule="evenodd"></path></g></svg>