<?xml version="1.0" standalone="no"?>
<svg xmlns:xlink="http://www.w3.org/1999/xlink" id="wave" style="transform:rotate(0deg); transition: 0.3s" viewBox="0 0 1440 280" version="1.1" xmlns="http://www.w3.org/2000/svg"><defs><linearGradient id="sw-gradient-0" x1="0" x2="0" y1="1" y2="0"><stop stop-color="hsl(182, 93%, 28%)" offset="0%"/><stop stop-color="hsl(182, 93%, 28%)" offset="100%"/></linearGradient></defs><path style="transform:translate(0, 0px); opacity:1" fill="url(#sw-gradient-0)" d="M0,224L80,196C160,168,320,112,480,102.7C640,93,800,131,960,158.7C1120,187,1280,205,1440,196C1600,187,1760,149,1920,112C2080,75,2240,37,2400,18.7C2560,0,2720,0,2880,23.3C3040,47,3200,93,3360,102.7C3520,112,3680,84,3840,70C4000,56,4160,56,4320,74.7C4480,93,4640,131,4800,135.3C4960,140,5120,112,5280,93.3C5440,75,5600,65,5760,56C5920,47,6080,37,6240,37.3C6400,37,6560,47,6720,51.3C6880,56,7040,56,7200,74.7C7360,93,7520,131,7680,144.7C7840,159,8000,149,8160,140C8320,131,8480,121,8640,112C8800,103,8960,93,9120,88.7C9280,84,9440,84,9600,88.7C9760,93,9920,103,10080,107.3C10240,112,10400,112,10560,107.3C10720,103,10880,93,11040,88.7C11200,84,11360,84,11440,84L11520,84L11520,280L11440,280C11360,280,11200,280,11040,280C10880,280,10720,280,10560,280C10400,280,10240,280,10080,280C9920,280,9760,280,9600,280C9440,280,9280,280,9120,280C8960,280,8800,280,8640,280C8480,280,8320,280,8160,280C8000,280,7840,280,7680,280C7520,280,7360,280,7200,280C7040,280,6880,280,6720,280C6560,280,6400,280,6240,280C6080,280,5920,280,5760,280C5600,280,5440,280,5280,280C5120,280,4960,280,4800,280C4640,280,4480,280,4320,280C4160,280,4000,280,3840,280C3680,280,3520,280,3360,280C3200,280,3040,280,2880,280C2720,280,2560,280,2400,280C2240,280,2080,280,1920,280C1760,280,1600,280,1440,280C1280,280,1120,280,960,280C800,280,640,280,480,280C320,280,160,280,80,280L0,280Z"/></svg>