<svg id="svg" xmlns="http://www.w3.org/2000/svg" xmlns:xlink="http://www.w3.org/1999/xlink" width="400" height="832" viewBox="0, 0, 400,832"><g id="svgg"><path id="path0" d="M145.331 49.551 C 49.790 151.667,45.125 192.873,87.842 557.352 C 98.126 645.100,91.946 640.000,188.000 640.000 C 281.630 640.000,278.179 642.269,286.456 575.284 C 332.877 199.598,325.400 138.561,220.766 39.000 C 187.720 7.556,184.155 8.055,145.331 49.551 M216.000 203.775 C 229.337 213.096,236.715 235.561,231.924 252.265 C 217.270 303.360,142.909 293.114,142.909 240.000 C 142.909 201.562,183.822 181.285,216.000 203.775 M30.588 529.915 L 12.000 552.733 12.000 594.290 C 12.000 635.089,12.180 635.893,21.828 638.314 C 32.682 641.038,66.043 631.470,65.927 625.667 C 65.590 608.756,54.321 516.812,52.063 512.548 C 50.002 508.656,43.859 513.623,30.588 529.915 M322.474 520.015 C 314.094 571.930,309.702 626.260,313.664 629.013 C 347.993 652.873,361.788 642.394,362.953 591.574 L 363.905 550.000 344.319 528.015 L 324.732 506.031 322.474 520.015 M122.314 659.000 C 94.122 687.010,106.514 741.518,151.780 788.615 C 186.419 824.656,191.326 824.682,224.063 789.000 C 266.260 743.008,277.956 705.955,260.994 672.000 C 245.770 641.525,219.786 655.068,229.597 688.363 C 237.572 715.430,209.577 772.000,188.207 772.000 C 166.326 772.000,138.371 714.938,146.628 687.132 C 154.050 662.142,137.927 643.487,122.314 659.000 " stroke="none" fill="#077878" fill-rule="evenodd"></path></g></svg>