<svg id="svg" xmlns="http://www.w3.org/2000/svg"
     xmlns:xlink="http://www.w3.org/1999/xlink" viewBox="0, 0, 400,76.45594823295173"><g id="svgg"><path id="path0" d="M101.985 0.534 C 101.860 1.035,101.765 3.940,101.703 9.209 C 101.694 9.975,101.653 12.596,101.612 15.032 C 101.571 17.469,101.521 20.717,101.501 22.250 C 101.458 25.566,101.508 25.369,100.715 25.363 C 100.376 25.360,98.542 25.364,96.638 25.372 L 93.176 25.386 93.091 25.610 C 92.984 25.892,92.885 39.182,92.879 54.046 C 92.876 61.405,92.839 65.499,92.775 65.619 C 92.668 65.819,90.898 65.900,90.610 65.717 C 90.443 65.611,90.299 64.998,90.296 64.379 C 90.291 63.302,89.601 63.146,88.777 64.037 C 88.219 64.641,87.661 64.719,86.762 64.322 C 86.234 64.089,86.182 63.979,86.015 62.768 C 85.947 62.275,85.787 61.424,85.659 60.876 C 85.216 58.973,85.069 57.636,84.903 53.981 C 84.761 50.846,84.721 43.868,84.837 42.319 C 84.948 40.823,84.912 40.774,83.775 40.869 C 82.808 40.949,82.672 40.852,82.529 39.973 C 82.336 38.786,81.438 38.777,81.290 39.961 C 81.212 40.586,81.096 40.714,80.547 40.788 C 79.831 40.884,79.670 40.785,79.543 40.172 C 79.396 39.467,79.193 39.224,78.691 39.157 C 78.178 39.088,78.090 39.198,78.006 40.016 C 77.915 40.893,77.885 40.916,76.853 40.916 C 76.114 40.916,75.969 40.943,75.909 41.090 C 75.871 41.186,75.823 43.907,75.804 47.138 C 75.766 53.301,75.695 57.054,75.600 57.889 C 75.494 58.811,75.154 60.570,74.867 61.672 C 74.711 62.275,74.552 62.959,74.515 63.193 C 74.356 64.183,73.002 64.223,72.829 63.243 C 72.695 62.491,72.729 62.518,71.945 62.534 C 71.551 62.542,70.920 62.538,70.541 62.526 C 69.058 62.478,69.086 62.351,68.952 69.745 C 68.911 71.982,68.847 72.311,68.464 72.256 C 67.942 72.180,67.621 71.224,67.534 69.487 C 67.469 68.168,67.491 68.219,66.962 68.140 C 66.519 68.074,66.516 68.071,66.461 67.611 C 66.372 66.856,66.205 61.204,66.222 59.482 C 66.257 55.972,66.236 55.696,65.918 55.329 C 65.645 55.016,65.536 54.669,65.441 53.808 C 65.416 53.589,65.331 52.873,65.252 52.218 C 65.172 51.563,65.107 50.990,65.107 50.947 C 65.107 50.903,64.861 50.612,64.559 50.302 C 64.258 49.991,64.012 49.696,64.012 49.647 C 64.012 49.598,63.930 49.439,63.830 49.294 C 63.267 48.478,62.548 46.280,62.065 43.902 C 61.749 42.344,61.522 41.513,61.412 41.513 C 61.270 41.513,61.062 42.124,60.989 42.752 C 60.727 44.991,59.892 47.238,58.622 49.117 C 57.318 51.046,57.221 51.292,57.059 53.083 C 56.982 53.938,56.921 54.151,56.535 54.913 L 56.098 55.775 56.066 61.902 L 56.035 68.030 55.795 68.315 C 55.556 68.600,55.410 69.010,55.301 69.708 C 55.269 69.912,55.138 70.204,55.009 70.358 C 54.879 70.511,54.610 70.916,54.410 71.257 C 53.838 72.233,53.697 72.119,53.364 70.410 C 53.230 69.723,53.080 69.261,52.903 68.994 C 52.758 68.775,52.580 68.310,52.506 67.960 C 52.433 67.610,52.259 67.110,52.120 66.848 C 51.981 66.586,51.867 66.315,51.867 66.245 C 51.867 66.176,51.714 65.632,51.528 65.037 C 51.341 64.443,51.158 63.733,51.121 63.461 C 50.855 61.496,50.279 61.545,49.901 63.564 C 49.819 64.002,49.671 64.629,49.573 64.958 C 49.474 65.286,49.362 65.757,49.324 66.003 C 49.286 66.249,49.150 66.657,49.023 66.910 C 48.895 67.162,48.722 67.668,48.637 68.035 C 48.552 68.401,48.397 68.889,48.293 69.119 C 48.072 69.605,47.923 70.153,47.843 70.773 C 47.782 71.247,47.513 71.645,47.358 71.490 C 47.181 71.313,47.299 60.719,47.489 59.717 C 47.542 59.436,47.586 59.003,47.586 58.754 C 47.586 58.496,47.677 58.113,47.796 57.866 C 48.075 57.291,48.114 57.307,46.240 57.228 C 44.061 57.136,44.201 57.203,44.201 56.237 C 44.201 55.770,44.142 55.302,44.057 55.099 L 43.913 54.754 42.874 54.754 C 42.142 54.754,41.804 54.792,41.728 54.883 C 41.630 55.002,41.439 56.575,41.497 56.782 C 41.622 57.225,41.297 57.267,38.328 57.190 C 36.767 57.149,35.436 57.114,35.370 57.113 C 35.182 57.108,35.042 56.578,35.041 55.859 C 35.039 54.929,34.831 54.762,33.667 54.756 C 32.938 54.752,32.852 54.850,32.852 55.690 C 32.852 57.173,32.867 57.159,31.288 57.150 C 29.382 57.138,28.846 57.323,29.095 57.907 C 29.359 58.526,29.408 59.869,29.384 65.854 C 29.361 71.790,29.345 72.175,29.123 72.175 C 28.943 72.175,28.890 71.442,28.825 68.009 C 28.768 65.057,28.734 64.867,28.222 64.612 C 27.898 64.451,27.997 64.451,22.071 64.560 L 18.706 64.621 18.611 64.871 C 18.559 65.008,18.517 65.627,18.517 66.246 C 18.517 67.692,18.594 67.630,16.794 67.639 L 15.383 67.646 15.294 67.223 L 15.204 66.801 14.435 66.810 C 13.539 66.819,13.230 66.692,12.020 65.816 C 9.812 64.217,10.060 64.252,8.344 65.299 C 7.615 65.745,6.190 66.516,5.177 67.015 C 3.021 68.075,2.593 68.349,2.590 68.673 C 2.587 69.050,2.761 69.261,3.132 69.331 C 3.616 69.422,3.673 69.587,3.695 70.971 C 3.721 72.537,3.919 72.427,1.020 72.462 L 0.000 72.474 0.000 74.365 L 0.000 76.257 0.672 76.269 C 1.042 76.275,1.389 76.270,1.444 76.257 C 1.498 76.245,91.095 76.214,200.548 76.189 C 310.000 76.165,399.608 76.126,399.676 76.104 C 399.855 76.047,399.855 72.741,399.676 72.597 C 399.608 72.542,399.130 72.471,398.614 72.439 C 397.375 72.362,397.478 72.663,397.416 68.931 C 397.354 65.211,397.426 65.458,396.382 65.365 C 396.045 65.334,394.111 65.283,392.086 65.251 C 390.060 65.218,388.371 65.162,388.333 65.125 C 388.296 65.088,388.233 64.594,388.194 64.029 C 388.127 63.042,388.113 62.996,387.865 62.899 C 387.695 62.832,385.160 62.809,380.488 62.831 C 372.497 62.869,373.289 62.941,372.181 62.080 C 371.360 61.442,371.173 61.410,368.439 61.439 C 366.655 61.459,366.024 61.434,365.932 61.343 C 365.803 61.213,365.804 61.241,365.772 56.085 L 365.754 53.185 365.479 53.071 C 365.119 52.922,348.290 52.961,348.151 53.111 C 348.096 53.170,348.034 57.099,348.000 62.706 C 347.968 67.928,347.921 72.222,347.894 72.248 C 347.799 72.343,346.724 72.373,346.560 72.285 C 346.423 72.212,346.387 72.021,346.367 71.264 C 346.328 69.740,346.227 68.230,346.156 68.116 C 346.116 68.052,345.565 67.997,344.763 67.978 C 343.579 67.949,343.425 67.925,343.334 67.756 C 343.268 67.633,343.219 64.388,343.194 58.497 C 343.136 45.030,343.108 43.299,342.944 43.195 C 342.869 43.147,342.369 43.115,341.833 43.123 C 340.651 43.142,340.670 43.159,340.597 42.022 C 340.564 41.519,340.504 41.087,340.463 41.062 C 340.321 40.975,334.545 40.887,333.688 40.959 L 332.831 41.031 332.771 41.886 C 332.695 42.961,332.731 42.933,331.420 42.914 C 330.064 42.894,330.229 42.009,330.184 49.536 C 330.142 56.370,330.187 55.900,329.570 55.992 C 329.024 56.074,328.991 56.125,328.912 56.974 C 328.826 57.891,328.860 57.873,326.981 57.995 L 325.350 58.100 324.669 58.553 C 323.361 59.423,322.865 59.592,321.552 59.617 C 320.378 59.639,319.007 59.743,318.889 59.818 C 318.830 59.856,318.773 61.093,318.745 62.945 C 318.717 64.813,318.659 66.049,318.598 66.111 C 318.497 66.211,314.003 66.251,313.904 66.152 C 313.832 66.080,314.193 65.703,314.535 65.491 C 314.733 65.369,314.777 65.307,314.665 65.306 C 314.382 65.306,314.186 64.906,314.186 64.331 L 314.186 63.799 313.651 63.865 C 313.020 63.944,312.965 63.892,312.913 63.166 C 312.870 62.562,312.764 62.442,312.138 62.282 C 311.698 62.170,311.646 62.126,311.585 61.816 C 311.548 61.628,311.468 61.236,311.409 60.946 C 311.269 60.264,311.533 59.632,311.959 59.632 C 312.202 59.632,312.213 59.610,312.153 59.258 C 312.118 59.053,312.055 58.639,312.014 58.337 C 311.973 58.036,311.851 57.657,311.744 57.495 C 311.558 57.215,311.548 57.013,311.548 53.563 L 311.548 49.925 311.269 49.477 C 310.667 48.513,310.541 48.339,310.221 48.028 C 309.975 47.790,309.876 47.594,309.838 47.273 C 309.810 47.034,309.729 46.705,309.658 46.541 C 309.586 46.376,309.497 46.040,309.459 45.794 C 309.421 45.548,309.273 45.167,309.129 44.948 C 308.986 44.729,308.860 44.505,308.850 44.450 C 308.613 43.170,308.047 41.167,307.883 41.031 C 307.429 40.654,306.872 41.565,306.464 43.355 C 306.314 44.012,306.065 44.810,305.910 45.127 C 305.756 45.445,305.580 45.893,305.520 46.123 C 305.151 47.527,304.987 47.924,304.583 48.379 C 303.678 49.397,303.383 50.028,303.395 50.921 C 303.477 57.039,303.473 57.241,303.249 57.544 C 303.013 57.864,302.986 58.093,303.140 58.496 C 303.219 58.707,303.205 58.847,303.077 59.117 C 302.890 59.512,303.038 59.731,303.491 59.731 C 303.805 59.731,303.972 60.400,303.758 60.797 C 303.676 60.950,303.580 61.344,303.546 61.672 L 303.484 62.270 302.970 62.300 C 302.309 62.338,302.220 62.456,302.161 63.380 L 302.113 64.134 301.622 64.087 C 301.129 64.040,300.846 64.169,300.846 64.443 C 300.846 64.508,300.645 64.683,300.398 64.832 C 299.812 65.185,299.813 65.413,300.403 65.962 L 300.855 66.384 300.629 66.542 C 300.287 66.781,298.600 66.769,298.472 66.526 C 298.420 66.427,298.372 64.228,298.363 61.474 C 298.343 55.469,298.665 56.169,295.902 56.128 C 294.443 56.106,293.849 56.063,293.795 55.977 C 293.754 55.910,293.708 49.348,293.692 41.395 C 293.676 33.442,293.645 26.905,293.623 26.869 C 293.600 26.833,293.381 26.753,293.136 26.692 C 292.515 26.535,292.403 26.141,292.388 24.080 L 292.384 23.520 291.510 23.452 C 290.401 23.365,290.402 23.365,290.275 22.511 C 290.133 21.555,290.141 21.558,288.163 21.636 C 286.310 21.709,286.343 21.691,286.286 22.643 C 286.233 23.529,286.177 23.566,285.101 23.418 L 284.271 23.303 284.010 23.585 C 283.771 23.843,283.743 23.965,283.677 25.016 C 283.593 26.352,283.494 26.517,282.697 26.634 C 281.848 26.759,281.921 25.649,281.869 39.193 C 281.826 50.201,281.809 51.230,281.659 51.344 C 281.551 51.426,281.120 51.468,280.389 51.468 C 279.102 51.468,279.044 51.501,279.044 52.228 C 279.044 52.995,278.875 53.110,277.302 53.407 C 275.757 53.700,275.893 52.743,275.831 63.746 C 275.805 68.391,275.744 72.230,275.696 72.277 C 275.583 72.391,274.781 72.457,274.469 72.379 C 274.266 72.328,274.222 72.253,274.211 71.938 C 274.200 71.638,274.131 71.506,273.883 71.312 C 273.387 70.923,273.485 70.577,274.131 70.439 C 274.490 70.362,274.561 70.194,274.563 69.419 C 274.565 68.689,274.442 68.433,274.022 68.294 C 273.310 68.059,273.355 67.833,274.265 67.070 C 274.481 66.889,274.640 65.623,274.482 65.339 C 274.427 65.239,274.213 65.067,274.006 64.958 C 273.423 64.648,273.383 63.813,273.951 63.813 C 274.045 63.813,274.222 63.743,274.343 63.658 C 274.819 63.325,274.552 61.523,274.027 61.523 C 273.415 61.523,273.414 60.834,274.026 60.491 L 274.415 60.273 274.444 59.309 L 274.472 58.345 274.152 58.262 C 273.421 58.073,273.286 57.407,273.956 57.294 C 274.407 57.218,274.423 57.188,274.513 56.234 C 274.602 55.275,274.531 55.081,274.058 55.001 C 273.400 54.890,273.356 54.389,273.973 54.035 C 274.327 53.832,274.457 53.521,274.535 52.694 C 274.603 51.965,274.526 51.829,273.894 51.558 C 273.254 51.284,273.336 50.853,274.055 50.709 C 274.828 50.555,274.778 48.732,273.995 48.535 C 273.605 48.437,273.572 48.343,273.570 47.319 C 273.568 45.681,273.941 45.802,268.807 45.768 C 264.831 45.741,264.983 45.774,265.063 44.969 C 265.119 44.410,265.240 44.324,266.103 44.232 L 266.849 44.151 266.879 43.455 C 266.928 42.319,267.455 42.409,260.738 42.409 C 255.807 42.409,254.967 42.430,254.785 42.558 C 254.532 42.735,254.479 43.275,254.415 46.286 C 254.371 48.380,254.409 48.245,253.765 48.602 C 253.026 49.012,253.070 50.421,253.832 50.738 C 254.463 51.000,254.448 51.357,253.796 51.629 C 253.003 51.960,253.059 53.995,253.863 54.075 C 254.575 54.145,254.489 55.052,253.771 55.052 C 253.330 55.052,253.260 55.210,253.260 56.205 C 253.260 57.214,253.297 57.284,253.873 57.392 C 254.463 57.502,254.310 58.238,253.697 58.238 C 252.957 58.238,253.148 60.543,253.899 60.670 C 254.553 60.781,254.498 61.251,253.786 61.623 L 253.310 61.872 253.280 62.617 C 253.238 63.686,253.280 63.790,253.811 63.924 C 254.494 64.096,254.558 64.565,253.934 64.812 C 253.313 65.058,253.260 65.156,253.260 66.075 C 253.260 67.053,253.339 67.248,253.770 67.334 C 254.518 67.484,254.561 67.882,253.861 68.173 C 253.279 68.415,253.239 68.516,253.281 69.636 L 253.310 70.432 253.776 70.517 C 254.375 70.626,254.446 70.816,254.032 71.202 C 253.838 71.384,253.668 71.669,253.609 71.915 C 253.513 72.308,253.491 72.327,253.061 72.374 C 252.572 72.429,251.809 72.350,251.691 72.232 C 251.618 72.159,251.594 67.408,251.544 43.239 C 251.530 36.385,251.481 30.741,251.435 30.695 C 251.305 30.565,237.887 30.525,237.645 30.654 C 237.334 30.821,237.342 30.353,237.295 51.886 C 237.270 63.040,237.220 72.214,237.183 72.274 C 237.104 72.402,233.454 72.400,233.247 72.272 C 233.143 72.208,233.110 69.687,233.076 59.217 C 233.053 52.081,233.004 45.863,232.968 45.400 L 232.902 44.558 232.544 44.484 C 232.347 44.443,230.344 44.396,228.094 44.380 C 225.157 44.359,223.969 44.318,223.886 44.235 C 223.804 44.152,223.757 42.812,223.721 39.506 C 223.680 35.635,223.648 34.855,223.522 34.656 L 223.373 34.418 221.990 34.488 C 221.229 34.527,220.604 34.544,220.600 34.527 C 220.596 34.509,220.572 33.308,220.546 31.857 C 220.486 28.401,220.673 28.801,219.090 28.740 C 216.786 28.653,210.539 28.745,210.415 28.868 C 210.265 29.018,210.195 32.402,210.160 41.314 C 210.100 56.109,210.105 55.756,209.963 55.844 C 209.890 55.889,207.653 55.932,204.990 55.941 C 200.427 55.955,199.451 55.989,199.361 56.136 C 199.340 56.169,199.309 58.325,199.292 60.926 C 199.259 65.930,199.255 66.003,199.047 66.003 C 198.832 66.003,198.817 65.653,198.760 59.184 C 198.669 48.961,198.633 47.551,198.349 43.049 C 198.278 41.926,198.292 41.947,197.472 41.775 C 197.100 41.697,196.758 41.595,196.713 41.548 C 196.607 41.437,196.531 38.397,196.455 31.168 C 196.389 24.790,196.397 25.096,196.282 24.911 C 196.165 24.724,195.464 24.390,195.186 24.390 C 194.878 24.390,194.901 24.449,194.225 21.901 C 193.829 20.407,192.501 16.506,192.048 15.505 C 191.943 15.272,191.812 14.915,191.756 14.712 C 191.701 14.508,191.562 14.210,191.447 14.049 C 191.333 13.889,191.239 13.714,191.239 13.662 C 191.239 13.610,191.088 13.236,190.904 12.831 C 190.719 12.427,190.467 11.782,190.343 11.399 C 190.219 11.015,190.084 10.657,190.043 10.602 C 190.002 10.548,189.938 10.346,189.902 10.154 C 189.816 9.709,189.541 9.059,189.437 9.059 C 189.356 9.059,189.302 9.320,189.207 10.169 C 189.179 10.424,189.045 10.872,188.911 11.166 C 188.777 11.460,188.637 11.834,188.601 11.998 C 188.565 12.161,188.473 12.429,188.398 12.593 C 188.274 12.862,187.524 14.710,186.903 16.277 C 186.080 18.349,184.939 21.799,184.514 23.494 C 184.230 24.629,183.894 25.101,183.272 25.237 C 182.654 25.373,182.677 25.046,182.636 34.047 C 182.598 42.374,182.626 42.005,182.021 42.009 C 181.178 42.016,181.154 42.074,180.985 44.450 C 180.931 45.217,180.865 45.950,180.840 46.079 C 180.814 46.208,180.768 50.666,180.736 55.984 C 180.674 66.339,180.682 66.103,180.391 66.103 C 180.121 66.103,180.077 65.758,180.102 63.813 C 180.113 62.909,180.115 61.067,180.106 59.718 L 180.090 57.267 179.786 57.141 C 179.619 57.072,179.417 56.888,179.336 56.732 C 179.045 56.169,179.049 56.170,175.147 56.127 C 171.203 56.085,171.295 56.100,171.195 55.473 C 171.082 54.773,170.890 54.621,170.199 54.684 C 169.419 54.754,169.341 54.865,169.326 55.917 C 169.319 56.372,169.302 56.789,169.288 56.844 C 169.275 56.899,169.258 57.002,169.251 57.073 C 169.244 57.145,169.014 57.298,168.741 57.413 L 168.243 57.623 168.238 58.155 C 168.181 64.012,168.027 66.977,167.801 66.610 C 167.762 66.547,167.705 60.146,167.675 52.387 C 167.639 43.274,167.585 38.234,167.521 38.153 C 167.335 37.919,154.340 37.978,154.214 38.214 C 153.998 38.617,153.920 43.488,153.913 57.006 L 153.907 66.775 153.608 66.899 C 153.289 67.031,152.362 66.991,152.220 66.838 C 152.174 66.790,152.107 56.068,152.070 43.012 C 152.034 29.957,151.983 19.240,151.957 19.198 C 151.931 19.156,151.765 19.098,151.589 19.068 C 147.535 18.390,145.978 18.057,144.749 17.604 C 144.448 17.493,144.067 17.395,143.902 17.387 L 143.604 17.372 143.549 23.843 C 143.520 27.402,143.485 37.840,143.473 47.038 C 143.445 68.073,143.479 67.098,142.766 67.098 C 142.115 67.098,142.170 68.312,142.111 52.862 C 142.082 45.443,142.038 36.198,142.014 32.317 L 141.969 25.261 141.744 25.099 C 141.333 24.805,139.960 23.992,139.873 23.992 C 139.826 23.992,139.773 23.958,139.754 23.917 C 139.736 23.876,139.363 23.598,138.925 23.299 C 138.487 22.999,138.039 22.670,137.929 22.567 C 137.820 22.463,137.573 22.262,137.382 22.119 C 136.784 21.672,136.069 20.902,135.996 20.624 C 135.945 20.433,135.850 20.350,135.658 20.327 L 135.391 20.295 135.376 23.961 C 135.368 25.976,135.347 28.163,135.331 28.820 C 135.315 29.477,135.297 38.206,135.291 48.217 C 135.280 66.064,135.267 66.829,134.973 67.011 C 134.868 67.075,134.323 66.959,134.212 66.849 C 134.181 66.818,134.145 64.655,134.131 62.042 C 134.083 52.670,133.989 50.659,133.552 49.704 C 133.260 49.067,133.230 48.848,133.098 46.341 C 133.040 45.246,132.906 43.589,132.800 42.658 C 132.385 39.007,131.926 34.193,131.851 32.703 C 131.798 31.655,131.719 29.659,131.712 29.194 C 131.709 29.016,131.665 28.870,131.614 28.870 C 131.464 28.870,131.418 29.383,131.157 33.947 C 131.124 34.522,131.053 35.396,131.000 35.889 C 130.946 36.381,130.860 37.367,130.810 38.079 C 130.759 38.790,130.650 40.045,130.567 40.866 C 130.484 41.687,130.371 42.964,130.317 43.703 C 130.263 44.443,130.151 45.876,130.069 46.889 C 129.987 47.902,129.895 49.063,129.864 49.469 C 129.833 49.874,129.790 50.234,129.769 50.268 C 129.592 50.555,129.385 55.084,129.270 61.175 C 129.164 66.755,129.123 67.198,128.709 67.198 C 128.311 67.198,128.255 66.823,128.171 63.564 C 128.082 60.098,127.873 56.305,127.760 56.124 C 127.671 55.980,127.340 56.048,127.287 56.222 C 127.258 56.318,127.211 57.583,127.184 59.034 C 127.158 60.485,127.114 61.852,127.087 62.071 C 127.061 62.290,127.013 63.275,126.980 64.261 C 126.893 66.886,126.861 67.067,126.442 67.291 C 126.232 67.404,126.162 67.981,126.041 70.616 C 125.986 71.809,125.934 72.213,125.827 72.279 C 125.633 72.399,124.358 72.332,124.221 72.195 C 123.968 71.943,123.884 49.978,124.135 49.894 C 124.610 49.736,124.054 48.867,123.235 48.487 C 122.854 48.310,122.757 48.207,122.657 47.876 C 122.544 47.498,121.698 46.789,121.361 46.789 C 121.305 46.789,121.183 46.666,121.089 46.516 C 120.842 46.117,120.338 45.595,120.200 45.595 C 120.134 45.595,119.908 45.392,119.697 45.144 L 119.313 44.693 116.507 44.631 C 113.592 44.565,113.191 44.612,113.191 45.013 C 113.191 45.074,112.911 45.398,112.568 45.734 C 112.226 46.070,111.865 46.468,111.765 46.620 C 111.665 46.771,111.341 47.032,111.044 47.200 C 110.719 47.383,110.393 47.670,110.227 47.919 C 110.060 48.168,109.766 48.427,109.485 48.570 C 108.940 48.849,108.865 48.990,109.017 49.450 C 109.149 49.850,109.096 72.054,108.963 72.270 C 108.876 72.411,106.889 72.378,106.744 72.233 C 106.703 72.192,106.666 66.932,106.662 60.544 C 106.657 54.156,106.646 43.632,106.637 37.158 L 106.620 25.386 104.890 25.386 C 103.612 25.386,103.133 25.353,103.055 25.259 C 102.986 25.175,102.948 23.819,102.943 21.252 C 102.935 16.772,102.850 12.517,102.746 11.466 C 102.707 11.065,102.663 10.014,102.649 9.130 C 102.635 8.246,102.607 7.496,102.586 7.463 C 102.566 7.430,102.521 5.861,102.487 3.975 C 102.452 2.090,102.407 0.492,102.385 0.423 C 102.318 0.211,102.048 0.286,101.985 0.534 M72.250 76.431 C 73.468 76.447,75.462 76.447,76.680 76.431 C 77.898 76.415,76.901 76.402,74.465 76.402 C 72.028 76.402,71.032 76.415,72.250 76.431 M102.720 76.431 C 104.435 76.446,107.212 76.446,108.892 76.431 C 110.572 76.416,109.169 76.403,105.774 76.403 C 102.379 76.403,101.005 76.416,102.720 76.431 " stroke="none" fill="#200141" fill-rule="evenodd"></path></g></svg>