<svg id="svg" version="1.1" xmlns="http://www.w3.org/2000/svg" xmlns:xlink="http://www.w3.org/1999/xlink" width="400" height="429.3785310734463" viewBox="0, 0, 400,429.3785310734463"><g id="svgg"><path id="path0" d="M195.905 62.994 C 185.273 70.443,180.791 73.942,180.791 74.794 C 180.791 75.296,180.253 75.706,179.595 75.706 C 178.299 75.706,174.335 78.651,159.669 90.508 C 158.440 91.502,150.162 97.858,141.273 104.632 C 132.385 111.407,123.452 118.220,121.422 119.774 C 119.392 121.328,110.691 127.898,102.086 134.374 C 93.481 140.850,85.531 147.079,84.419 148.216 C 83.307 149.353,82.036 150.291,81.594 150.301 C 81.153 150.310,79.011 151.830,76.836 153.678 C 74.661 155.526,72.373 157.425,71.751 157.898 C 71.130 158.370,67.260 161.299,63.152 164.407 C 51.342 173.339,48.997 179.953,55.301 186.550 C 59.400 190.838,65.935 192.055,71.082 189.487 L 74.576 187.744 74.576 272.228 C 74.576 365.138,74.010 357.360,81.058 361.299 C 85.222 363.626,321.574 363.332,326.261 360.994 C 333.179 357.542,332.790 363.096,332.527 271.577 C 332.395 225.374,332.540 187.571,332.850 187.571 C 333.159 187.571,334.677 188.399,336.222 189.411 C 342.455 193.495,352.419 189.004,354.369 181.232 C 355.936 174.991,352.272 170.847,331.504 155.367 C 320.665 147.288,309.905 139.035,307.593 137.027 C 305.281 135.019,303.045 133.367,302.623 133.355 C 302.201 133.343,301.184 132.674,300.363 131.867 C 299.542 131.061,291.751 124.958,283.051 118.305 C 245.050 89.249,228.698 76.716,227.086 75.410 C 206.358 58.625,203.669 57.554,195.905 62.994 M220.339 192.601 C 233.984 194.670,249.149 199.312,258.757 204.360 C 265.127 207.706,270.778 210.867,271.745 211.624 C 272.370 212.114,276.059 214.789,279.944 217.570 C 286.481 222.249,287.006 222.944,287.006 226.919 C 287.006 237.302,278.330 239.178,267.797 231.073 C 264.162 228.277,260.642 225.989,259.973 225.989 C 259.304 225.989,258.757 225.578,258.757 225.076 C 258.757 224.574,256.596 223.234,253.955 222.098 C 251.314 220.961,247.019 219.084,244.412 217.925 C 241.805 216.767,238.983 215.819,238.141 215.819 C 237.299 215.819,236.110 215.319,235.498 214.707 C 228.371 207.580,180.066 209.777,162.147 218.043 C 160.904 218.617,157.345 220.195,154.237 221.552 C 151.130 222.908,144.837 226.749,140.254 230.088 C 130.960 236.857,126.504 237.775,121.981 233.852 C 114.400 227.277,121.493 218.269,143.503 206.519 C 167.757 193.570,194.629 188.703,220.339 192.601 M217.514 237.258 C 226.105 239.161,232.217 240.913,235.764 242.487 C 237.722 243.357,239.883 244.068,240.566 244.068 C 241.249 244.068,241.808 244.576,241.808 245.198 C 241.808 245.819,242.507 246.328,243.361 246.328 C 245.989 246.328,257.569 255.582,259.311 259.075 C 264.079 268.632,253.249 274.219,243.267 267.352 C 230.208 258.369,220.220 255.367,203.390 255.367 C 186.837 255.367,173.341 259.412,164.184 267.117 C 157.523 272.722,150.849 272.094,147.461 265.544 C 139.874 250.871,189.152 230.974,217.514 237.258 M213.215 281.910 C 231.046 286.115,239.345 299.146,228.044 305.194 C 225.674 306.463,218.079 305.645,218.079 304.121 C 218.079 302.335,209.190 299.435,203.713 299.435 C 198.374 299.435,194.313 300.727,187.571 304.571 C 184.069 306.567,180.624 306.654,178.385 304.802 C 163.638 292.603,188.702 276.130,213.215 281.910 " stroke="none" fill="hsl(43, 97%, 50%)" fill-rule="evenodd"></path></g></svg>