<svg xmlns="http://www.w3.org/2000/svg" width="1415" height="176" viewBox="0 0 1415 176">
<g>
<path d="M 313.50 173.87 C267.24,168.85 225.64,155.71 171.50,128.99 C135.88,111.42 97.78,88.70 58.03,61.32 C53.89,58.46 44.88,52.30 38.00,47.61 C31.12,42.92 20.55,35.66 14.50,31.47 C8.45,27.28 2.71,23.33 1.75,22.69 C0.26,21.70 0.00,19.89 0.00,10.76 L 0.00 0.00 L 707.50 0.00 L 1415.00 0.00 L 1415.00 57.98 L 1415.00 115.95 L 1412.25 114.87 C1410.74,114.28 1405.45,112.29 1400.50,110.45 C1395.55,108.61 1388.35,105.92 1384.50,104.46 C1380.65,103.01 1376.38,101.44 1375.00,100.98 C1373.62,100.52 1368.90,98.74 1364.50,97.03 C1336.14,86.00 1290.02,69.74 1258.00,59.46 C1226.94,49.49 1223.76,48.51 1206.50,43.58 C1197.70,41.06 1189.15,38.57 1187.50,38.04 C1180.63,35.84 1131.38,23.92 1117.50,21.10 C1098.79,17.30 1070.34,12.49 1055.09,10.55 C1018.37,5.87 1012.50,5.53 968.00,5.54 C928.83,5.54 922.61,5.77 905.50,7.84 C831.32,16.80 774.14,34.87 648.12,89.17 C621.09,100.81 575.31,119.90 561.00,125.49 C488.59,153.79 435.54,168.15 383.78,173.48 C367.74,175.14 327.22,175.36 313.50,173.87 Z" fill="rgba(31,1,64,1)"/>
</g>
</svg>