<svg xmlns="http://www.w3.org/2000/svg" width="1854" height="134" viewBox="0 0 1854 134">
<g>
<path d="M 8.37 2.43 C3.18,1.26 0.23,0.57 0.13,0.46 L 0.13 0.46 C0.13,0.21 417.05,0.00 926.83,0.00 C418.18,0.00 2.55,0.38 2.55,0.84 L 2.55 0.84 C2.75,1.01 4.89,1.59 8.37,2.43 ZM 874.00 131.34 C797.63,128.62 734.22,124.54 665.56,117.56 C734.12,124.40 800.84,128.73 874.00,131.34 ZM 314.02 65.70 C296.51,62.41 278.68,58.97 260.50,55.38 C245.00,52.31 217.65,46.69 186.34,40.18 C234.45,50.16 275.95,58.47 314.02,65.70 ZM 162.68 35.24 C129.26,28.26 93.73,20.77 64.44,14.53 C86.04,19.09 114.04,25.00 140.00,30.47 C147.72,32.10 155.28,33.69 162.68,35.24 ZM 512.79 98.80 C496.86,96.53 480.74,94.14 464.41,91.61 C471.55,92.71 478.74,93.80 486.00,94.88 C495.05,96.23 503.97,97.54 512.79,98.80 Z" fill="rgba(0,0,0,1)"/>
<path d="M 874.00 131.34 C740.01,126.56 627.62,116.00 486.00,94.88 C382.58,79.46 293.86,62.94 140.00,30.47 C97.38,21.48 49.22,11.32 33.00,7.90 C16.77,4.47 3.07,1.30 2.55,0.84 C2.03,0.38 418.39,0.00 927.80,0.00 C1544.60,0.00 1854.00,0.33 1854.00,1.00 C1854.00,1.55 1853.76,2.00 1853.46,2.00 C1853.16,2.00 1837.30,5.58 1818.21,9.95 C1785.74,17.38 1757.41,23.81 1731.50,29.61 C1545.15,71.32 1403.51,95.93 1240.00,114.99 C1177.82,122.25 1093.64,128.45 1023.04,130.98 C998.41,131.86 895.70,132.11 874.00,131.34 Z" fill="rgba(31,1,64,1)"/>
</g>
</svg>