<svg xmlns="http://www.w3.org/2000/svg" version="1.1" xmlns:xlink="http://www.w3.org/1999/xlink" xmlns:svgjs="http://svgjs.dev/svgjs" viewBox="0 0 800 800"><defs><linearGradient x1="50%" y1="0%" x2="50%" y2="100%" id="ffflurry-grad" gradientTransform="rotate(270)"><stop stop-color="#fbb504" stop-opacity="1" offset="0%"></stop><stop stop-color="#17002f" stop-opacity="1" offset="45%"></stop><stop stop-color="#077878" stop-opacity="1" offset="100%"></stop></linearGradient></defs><rect width="100%" height="100%" fill="#fbb504"></rect><g fill="url(#ffflurry-grad)"><rect width="451" height="2" x="36.5" y="747" rx="1" transform="rotate(135, 262, 748)"></rect><rect width="171" height="2" x="79.5" y="297" rx="1" transform="rotate(135, 165, 298)"></rect><rect width="252" height="2" x="-108" y="730" rx="1" transform="rotate(135, 18, 731)"></rect><rect width="226" height="2" x="456" y="534" rx="1" transform="rotate(135, 569, 535)"></rect><rect width="287" height="2" x="40.5" y="434" rx="1" transform="rotate(135, 184, 435)"></rect><rect width="271" height="2" x="-98.5" y="50" rx="1" transform="rotate(135, 37, 51)"></rect><rect width="103" height="2" x="721.5" y="162" rx="1" transform="rotate(135, 773, 163)"></rect><rect width="148" height="2" x="699" y="578" rx="1" transform="rotate(135, 773, 579)"></rect><rect width="66" height="2" x="305" y="272" rx="1" transform="rotate(135, 338, 273)"></rect><rect width="159" height="2" x="608.5" y="104" rx="1" transform="rotate(135, 688, 105)"></rect><rect width="355" height="2" x="5.5" y="718" rx="1" transform="rotate(135, 183, 719)"></rect><rect width="91" height="2" x="720.5" y="83" rx="1" transform="rotate(135, 766, 84)"></rect><rect width="253" height="2" x="151.5" y="210" rx="1" transform="rotate(135, 278, 211)"></rect><rect width="125" height="2" x="482.5" y="734" rx="1" transform="rotate(135, 545, 735)"></rect><rect width="356" height="2" x="442" y="710" rx="1" transform="rotate(135, 620, 711)"></rect><rect width="153" height="2" x="11.5" y="772" rx="1" transform="rotate(135, 88, 773)"></rect><rect width="415" height="2" x="399.5" y="139" rx="1" transform="rotate(135, 607, 140)"></rect><rect width="114" height="2" x="149" y="94" rx="1" transform="rotate(135, 206, 95)"></rect><rect width="470" height="2" x="138" y="451" rx="1" transform="rotate(135, 373, 452)"></rect><rect width="172" height="2" x="610" y="761" rx="1" transform="rotate(135, 696, 762)"></rect><rect width="100" height="2" x="557" y="614" rx="1" transform="rotate(135, 607, 615)"></rect><rect width="153" height="2" x="276.5" y="367" rx="1" transform="rotate(135, 353, 368)"></rect><rect width="131" height="2" x="695.5" y="710" rx="1" transform="rotate(135, 761, 711)"></rect><rect width="312" height="2" x="343" y="133" rx="1" transform="rotate(135, 499, 134)"></rect><rect width="90" height="2" x="297" y="150" rx="1" transform="rotate(135, 342, 151)"></rect><rect width="163" height="2" x="640.5" y="28" rx="1" transform="rotate(135, 722, 29)"></rect><rect width="54" height="2" x="312" y="776" rx="1" transform="rotate(135, 339, 777)"></rect><rect width="355" height="2" x="135.5" y="581" rx="1" transform="rotate(135, 313, 582)"></rect><rect width="155" height="2" x="398.5" y="489" rx="1" transform="rotate(135, 476, 490)"></rect><rect width="391" height="2" x="71.5" y="130" rx="1" transform="rotate(135, 267, 131)"></rect><rect width="342" height="2" x="-48" y="382" rx="1" transform="rotate(135, 123, 383)"></rect><rect width="91" height="2" x="643.5" y="584" rx="1" transform="rotate(135, 689, 585)"></rect><rect width="464" height="2" x="-90" y="511" rx="1" transform="rotate(135, 142, 512)"></rect><rect width="45" height="2" x="671.5" y="642" rx="1" transform="rotate(135, 694, 643)"></rect><rect width="381" height="2" x="431.5" y="329" rx="1" transform="rotate(135, 622, 330)"></rect><rect width="251" height="2" x="612.5" y="331" rx="1" transform="rotate(135, 738, 332)"></rect><rect width="171" height="2" x="377.5" y="44" rx="1" transform="rotate(135, 463, 45)"></rect><rect width="520" height="2" x="-187" y="218" rx="1" transform="rotate(135, 73, 219)"></rect><rect width="356" height="2" x="7" y="185" rx="1" transform="rotate(135, 185, 186)"></rect><rect width="263" height="2" x="406.5" y="249" rx="1" transform="rotate(135, 538, 250)"></rect><rect width="108" height="2" x="533" y="46" rx="1" transform="rotate(135, 587, 47)"></rect><rect width="197" height="2" x="-14.5" y="709" rx="1" transform="rotate(135, 84, 710)"></rect><rect width="385" height="2" x="58.5" y="390" rx="1" transform="rotate(135, 251, 391)"></rect><rect width="256" height="2" x="573" y="416" rx="1" transform="rotate(135, 701, 417)"></rect><rect width="240" height="2" x="517" y="404" rx="1" transform="rotate(135, 637, 405)"></rect><rect width="170" height="2" x="293" y="46" rx="1" transform="rotate(135, 378, 47)"></rect><rect width="94" height="2" x="665" y="184" rx="1" transform="rotate(135, 712, 185)"></rect><rect width="478" height="2" x="232" y="348" rx="1" transform="rotate(135, 471, 349)"></rect><rect width="302" height="2" x="155" y="51" rx="1" transform="rotate(135, 306, 52)"></rect><rect width="43" height="2" x="661.5" y="543" rx="1" transform="rotate(135, 683, 544)"></rect><rect width="412" height="2" x="431" y="226" rx="1" transform="rotate(135, 637, 227)"></rect><rect width="194" height="2" x="670" y="406" rx="1" transform="rotate(135, 767, 407)"></rect><rect width="480" height="2" x="304" y="419" rx="1" transform="rotate(135, 544, 420)"></rect><rect width="348" height="2" x="64" y="280" rx="1" transform="rotate(135, 238, 281)"></rect><rect width="202" height="2" x="316" y="170" rx="1" transform="rotate(135, 417, 171)"></rect><rect width="381" height="2" x="-144.5" y="320" rx="1" transform="rotate(135, 46, 321)"></rect><rect width="474" height="2" x="22" y="500" rx="1" transform="rotate(135, 259, 501)"></rect><rect width="272" height="2" x="-9" y="40" rx="1" transform="rotate(135, 127, 41)"></rect><rect width="182" height="2" x="662" y="625" rx="1" transform="rotate(135, 753, 626)"></rect><rect width="48" height="2" x="747" y="500" rx="1" transform="rotate(135, 771, 501)"></rect><rect width="501" height="2" x="-201.5" y="558" rx="1" transform="rotate(135, 49, 559)"></rect><rect width="230" height="2" x="-67" y="449" rx="1" transform="rotate(135, 48, 450)"></rect><rect width="109" height="2" x="262.5" y="659" rx="1" transform="rotate(135, 317, 660)"></rect><rect width="379" height="2" x="-8.5" y="605" rx="1" transform="rotate(135, 181, 606)"></rect><rect width="79" height="2" x="705.5" y="255" rx="1" transform="rotate(135, 745, 256)"></rect><rect width="50" height="2" x="353" y="718" rx="1" transform="rotate(135, 378, 719)"></rect><rect width="159" height="2" x="325.5" y="559" rx="1" transform="rotate(135, 405, 560)"></rect><rect width="55" height="2" x="428.5" y="744" rx="1" transform="rotate(135, 456, 745)"></rect><rect width="40" height="2" x="265" y="321" rx="1" transform="rotate(135, 285, 322)"></rect><rect width="318" height="2" x="57" y="28" rx="1" transform="rotate(135, 216, 29)"></rect><rect width="101" height="2" x="574.5" y="464" rx="1" transform="rotate(135, 625, 465)"></rect><rect width="117" height="2" x="662.5" y="481" rx="1" transform="rotate(135, 721, 482)"></rect><rect width="210" height="2" x="313" y="259" rx="1" transform="rotate(135, 418, 260)"></rect><rect width="389" height="2" x="291.5" y="627" rx="1" transform="rotate(135, 486, 628)"></rect><rect width="452" height="2" x="-147" y="127" rx="1" transform="rotate(135, 79, 128)"></rect><rect width="221" height="2" x="548.5" y="503" rx="1" transform="rotate(135, 659, 504)"></rect><rect width="236" height="2" x="-53" y="643" rx="1" transform="rotate(135, 65, 644)"></rect></g></svg>